<svg width="12" height="12" viewBox="0 0 12 12" fill="none" xmlns="http://www.w3.org/2000/svg">
<path fill-rule="evenodd" clip-rule="evenodd" d="M0.428589 1.5C0.428589 0.671571 1.10016 0 1.92859 0H4.07145C4.42648 0 4.7143 0.28782 4.7143 0.642857C4.7143 0.997894 4.42648 1.28571 4.07145 1.28571H1.92859C1.81024 1.28571 1.7143 1.38165 1.7143 1.5V10.5C1.7143 10.6184 1.81024 10.7143 1.92859 10.7143H4.07145C4.42648 10.7143 4.7143 11.0021 4.7143 11.3571C4.7143 11.7122 4.42648 12 4.07145 12H1.92859C1.10016 12 0.428589 11.3284 0.428589 10.5V1.5ZM9.37656 5.35714H4.50003C4.145 5.35714 3.85718 5.64496 3.85718 6C3.85718 6.35505 4.145 6.64286 4.50003 6.64286H9.37656L7.68833 8.33117C7.43727 8.58223 7.43727 8.9892 7.68833 9.24026C7.93939 9.49131 8.34636 9.49131 8.59742 9.24026L11.3831 6.45457C11.6342 6.20352 11.6342 5.79648 11.3831 5.54543L8.59742 2.75972C8.34636 2.50867 7.93939 2.50867 7.68833 2.75972C7.43727 3.01077 7.43727 3.41781 7.68833 3.66885L9.37656 5.35714Z" fill="#E01B00"/>
</svg>
