<svg width="11" height="11" viewBox="0 0 11 11" fill="none" xmlns="http://www.w3.org/2000/svg">
<path fill-rule="evenodd" clip-rule="evenodd" d="M5.48682 4.30235L8.8511 0.938076C9.1852 0.603975 9.72782 0.603975 10.0619 0.938076C10.396 1.27218 10.396 1.8148 10.0619 2.1489L6.69765 5.51318L10.0619 8.87745C10.389 9.2038 10.389 9.7348 10.0619 10.0619C9.7348 10.389 9.2038 10.389 8.87745 10.0619L5.51318 6.69765L2.1489 10.0619C1.8148 10.396 1.27218 10.396 0.938076 10.0619C0.603975 9.72782 0.603975 9.1852 0.938076 8.8511L4.30235 5.48682L0.938076 2.12255C0.610951 1.7962 0.610951 1.2652 0.938076 0.938076C1.2652 0.610951 1.7962 0.610951 2.12255 0.938076L5.48682 4.30235V4.30235Z" fill="white"/>
</svg>
