<svg width="17" height="16" viewBox="0 0 17 16" fill="none" xmlns="http://www.w3.org/2000/svg">
<path d="M3.07682 13.3633L3.37071 12.9588L3.07682 13.3633ZM1.72103 11.015L2.21829 10.9628L1.72103 11.015ZM13.119 5.99992L13.552 5.74992L13.119 5.99992ZM15.2794 11.015L15.7766 11.0673L15.2794 11.015ZM13.9236 13.3633L14.2175 13.7678L13.9236 13.3633ZM9.85599 1.62143L9.65262 2.07821L9.85599 1.62143ZM7.14441 1.62143L7.34778 2.07821L7.14441 1.62143ZM9.0002 4.66659C9.0002 4.39044 8.77634 4.16659 8.5002 4.16659C8.22406 4.16659 8.0002 4.39044 8.0002 4.66659H9.0002ZM8.0002 8.66659C8.0002 8.94273 8.22406 9.16659 8.5002 9.16659C8.77634 9.16659 9.0002 8.94273 9.0002 8.66659H8.0002ZM8.5002 13.4999C6.97462 13.4999 5.8651 13.4994 5.02598 13.4224C4.18426 13.3452 3.69738 13.1961 3.37071 12.9588L2.78292 13.7678C3.33247 14.1671 4.04156 14.3363 4.93462 14.4183C5.83028 14.5004 6.99434 14.4999 8.5002 14.4999V13.4999ZM3.44839 5.74992C2.69545 7.05404 2.11299 8.06189 1.73632 8.87864C1.36075 9.69302 1.15276 10.3917 1.22377 11.0673L2.21829 10.9628C2.17608 10.5612 2.29042 10.065 2.64441 9.29743C2.9973 8.53224 3.55162 7.57111 4.31441 6.24992L3.44839 5.74992ZM3.37071 12.9588C2.72108 12.4868 2.30222 11.7613 2.21829 10.9628L1.22377 11.0673C1.33733 12.1477 1.90401 13.1292 2.78292 13.7678L3.37071 12.9588ZM12.686 6.24992C13.4488 7.57111 14.0031 8.53224 14.356 9.29743C14.71 10.065 14.8243 10.5612 14.7821 10.9628L15.7766 11.0673C15.8476 10.3917 15.6397 9.69302 15.2641 8.87864C14.8874 8.06189 14.305 7.05404 13.552 5.74992L12.686 6.24992ZM8.5002 14.4999C10.0061 14.4999 11.1701 14.5004 12.0658 14.4183C12.9588 14.3363 13.6679 14.1671 14.2175 13.7678L13.6297 12.9588C13.303 13.1961 12.8161 13.3452 11.9744 13.4224C11.1353 13.4994 10.0258 13.4999 8.5002 13.4999V14.4999ZM14.7821 10.9628C14.6982 11.7613 14.2793 12.4868 13.6297 12.9588L14.2175 13.7678C15.0964 13.1292 15.6631 12.1477 15.7766 11.0673L14.7821 10.9628ZM13.552 5.74992C12.7991 4.4458 12.2175 3.43744 11.6985 2.70287C11.181 1.97042 10.6799 1.44095 10.0594 1.16466L9.65262 2.07821C10.0215 2.24244 10.394 2.58956 10.8818 3.2799C11.368 3.9681 11.9232 4.92873 12.686 6.24992L13.552 5.74992ZM4.31441 6.24992C5.0772 4.92873 5.6324 3.9681 6.11863 3.2799C6.60636 2.58956 6.9789 2.24244 7.34778 2.07821L6.94105 1.16466C6.3205 1.44095 5.81939 1.97042 5.3019 2.70287C4.78292 3.43744 4.20132 4.4458 3.44839 5.74992L4.31441 6.24992ZM10.0594 1.16466C9.06688 0.722782 7.93352 0.722782 6.94105 1.16466L7.34778 2.07821C8.08135 1.7516 8.91905 1.7516 9.65262 2.07821L10.0594 1.16466ZM8.0002 4.66659V8.66659H9.0002V4.66659H8.0002Z" fill="#E01B00"/>
<path d="M9.16683 10.6667C9.16683 11.0349 8.86835 11.3333 8.50016 11.3333C8.13197 11.3333 7.8335 11.0349 7.8335 10.6667C7.8335 10.2985 8.13197 10 8.50016 10C8.86835 10 9.16683 10.2985 9.16683 10.6667Z" fill="#E01B00"/>
</svg>
