<svg width="32" height="33" viewBox="0 0 32 33" fill="none" xmlns="http://www.w3.org/2000/svg">
<path fill-rule="evenodd" clip-rule="evenodd" d="M19.4723 14.4173C19.4723 12.4988 17.9178 10.9443 16.0008 10.9443C14.0824 10.9443 12.5279 12.4988 12.5279 14.4173C12.5279 16.3343 14.0824 17.8888 16.0008 17.8888C17.9178 17.8888 19.4723 16.3343 19.4723 14.4173Z" stroke="#85858A" stroke-width="1.5" stroke-linecap="round" stroke-linejoin="round"/>
<path d="M15.9993 28.2495C15.9881 28.2478 15.9421 28.2405 15.8528 28.2097C15.7425 28.1716 15.5984 28.1089 15.4211 28.0163C15.0668 27.8312 14.622 27.5487 14.1156 27.1741C13.1045 26.4262 11.8927 25.3444 10.7279 24.0329C8.37592 21.3848 6.33333 17.9352 6.33333 14.5046C6.33333 9.11181 10.6662 4.75 15.9993 4.75C21.3325 4.75 25.6667 9.11194 25.6667 14.5046C25.6667 17.9352 23.6238 21.3848 21.2715 24.0329C20.1065 25.3444 18.8945 26.4261 17.8833 27.1741C17.3768 27.5487 16.9319 27.8312 16.5776 28.0163C16.4003 28.1089 16.2561 28.1716 16.1458 28.2097C16.0565 28.2405 16.0105 28.2478 15.9993 28.2495Z" stroke="#85858A" stroke-width="1.5" stroke-linecap="round" stroke-linejoin="round"/>
</svg>
