<svg width="17" height="16" viewBox="0 0 17 16" fill="none" xmlns="http://www.w3.org/2000/svg">
<path fill-rule="evenodd" clip-rule="evenodd" d="M2.97947 2.69443C3.355 2.37452 3.93637 1.9799 4.56377 2.0008L4.58217 2.00141L4.60047 2.00337C4.94835 2.0407 5.26415 2.21432 5.53475 2.47564L5.53643 2.47727C5.72169 2.65787 6.04868 3.03997 6.33297 3.41042C6.47703 3.59814 6.61783 3.79282 6.7293 3.96711C6.78493 4.05407 6.83698 4.14175 6.87928 4.2248C6.91743 4.2997 6.9632 4.40041 6.98569 4.50765C7.10395 5.05702 6.85604 5.48974 6.71655 5.73321C6.7111 5.74273 6.70581 5.75197 6.70071 5.76091L6.68922 5.78108C6.64865 5.85118 6.59689 5.92938 6.55196 5.99729L6.547 6.00479C6.4525 6.14765 6.37037 6.2736 6.31785 6.38593C6.3027 6.41832 6.2933 6.4429 6.28765 6.46032C6.47807 6.91119 6.74503 7.35796 7.06837 7.77601C7.45795 8.24039 8.05752 8.81647 8.36237 9.03121C8.67094 9.24856 8.98956 9.43056 9.31338 9.57051C9.33355 9.56457 9.36304 9.55386 9.40271 9.53552C9.52071 9.48097 9.65143 9.39659 9.79515 9.30253L9.80183 9.29816C9.86514 9.25672 9.93685 9.20979 10.0008 9.1725L10.0044 9.17045L10.025 9.15888C10.0336 9.15405 10.0424 9.14906 10.0515 9.14393C10.2991 9.00428 10.7315 8.76039 11.2862 8.87668L11.2874 8.87693L11.285 8.87643L11.2862 8.87668C11.3917 8.89853 11.4917 8.94307 11.5665 8.9804C11.6489 9.0215 11.7362 9.07208 11.8232 9.12629C11.9975 9.23492 12.1928 9.37218 12.3816 9.51299C12.7522 9.78943 13.1376 10.1095 13.3218 10.2953L13.3203 10.2937L13.3235 10.2969L13.3218 10.2953C13.5839 10.556 13.7748 10.8769 13.8038 11.2512L13.8045 11.2601L13.8049 11.269C13.8306 11.8848 13.4462 12.4503 13.1299 12.8181C12.8093 13.1908 12.4432 13.4911 12.2518 13.612C12.2034 13.6426 12.2856 13.5878 12.2518 13.612C11.4909 14.1562 10.5395 14.0894 9.56391 13.6504C9.5408 13.64 9.58363 13.6584 9.56391 13.6504C8.52081 13.2254 7.31901 12.3602 6.19154 11.3501C5.78902 10.9895 5.01356 10.2295 4.76934 9.94994C4.77099 9.95173 4.77264 9.95351 4.77428 9.9553L4.76399 9.9438C4.76575 9.94582 4.76753 9.94787 4.76934 9.94994C3.632 8.71709 2.64321 7.36301 2.16376 6.22787C2.15311 6.20266 2.17363 6.2489 2.16376 6.22787C1.93233 5.73458 1.80612 5.25043 1.80612 4.79295C1.80612 4.33716 1.93501 3.91691 2.19057 3.55411C2.18503 3.56307 2.17985 3.57175 2.17507 3.58012L2.20328 3.53626C2.19901 3.54219 2.19477 3.54814 2.19057 3.55411C2.25051 3.45719 2.35338 3.32692 2.46827 3.19702C2.60192 3.04592 2.77721 2.86674 2.97947 2.69443ZM9.28641 9.57668L9.28779 9.57653L9.28641 9.57668ZM6.28019 6.48925L6.28034 6.48809L6.28019 6.48925ZM3.04381 4.07566L3.04316 4.07651L3.0302 4.09918L3.01495 4.12037C2.87877 4.30961 2.80612 4.52992 2.80612 4.79295C2.80612 5.07012 2.88405 5.41104 3.07274 5.81092L3.07733 5.82065L3.0815 5.83058C3.49476 6.81398 4.39935 8.07488 5.50907 9.27699L5.5143 9.28266L5.51936 9.28849C5.7175 9.51689 6.46618 10.2536 6.85879 10.6053C7.95757 11.5897 9.06162 12.3678 9.94869 12.7273L9.9579 12.7311L9.96695 12.7351C10.7878 13.1064 11.3241 13.051 11.6787 12.7924L11.6962 12.7796L11.7148 12.7684C11.7927 12.7213 12.095 12.4878 12.3717 12.166C12.6598 11.8311 12.8098 11.5271 12.8061 11.3202C12.7985 11.2521 12.7586 11.1452 12.6158 11.0035L12.6126 11.0003C12.4818 10.8681 12.1423 10.5821 11.7837 10.3146C11.6073 10.183 11.4364 10.0635 11.2943 9.97496C11.2231 9.93057 11.1647 9.89746 11.1201 9.87525C11.0926 9.86152 11.0776 9.8556 11.073 9.85379C10.9143 9.82321 10.7842 9.87943 10.5146 10.0308L10.5011 10.0384C10.4626 10.061 10.4131 10.0932 10.3427 10.1393L10.3314 10.1467C10.2011 10.232 10.0134 10.3549 9.8223 10.4432C9.65392 10.5211 9.33521 10.6454 9.01302 10.5285L9.00238 10.5247L8.99192 10.5203C8.5709 10.3457 8.16723 10.1169 7.78649 9.84874C7.38399 9.56522 6.71683 8.91441 6.2954 8.41053L6.28949 8.40346L6.28385 8.39619C5.89408 7.89368 5.56666 7.34367 5.33531 6.77425L5.33262 6.76763L5.33012 6.76093C5.21053 6.44062 5.33589 6.1251 5.41198 5.96236C5.49878 5.77673 5.62005 5.59348 5.70523 5.46477C5.70784 5.46082 5.71042 5.45692 5.71297 5.45307C5.76408 5.37581 5.79915 5.32245 5.82297 5.28144L5.83194 5.2657C5.98645 4.99464 6.03878 4.87059 6.00935 4.72414C6.0075 4.71957 6.00164 4.70503 5.98822 4.67868C5.9658 4.63468 5.93219 4.57677 5.88687 4.50591C5.79647 4.36457 5.6743 4.19467 5.53966 4.01923C5.26713 3.66412 4.9745 3.32624 4.83924 3.19416C4.69838 3.05837 4.58642 3.01244 4.51104 3.00002C4.28738 3.00224 3.96847 3.16557 3.62795 3.45566C3.4672 3.5926 3.3252 3.73757 3.21731 3.85954C3.16355 3.92032 3.11996 3.97348 3.08805 4.01491C3.06034 4.05089 3.04717 4.07062 3.04381 4.07566Z" fill="#85858A"/>
<rect x="8.10687" y="3.5" width="7.58698" height="3.79349" rx="1" fill="#85858A"/>
<path d="M9.60289 5.81473C9.62289 5.92873 9.66889 6.01673 9.74089 6.07873C9.81489 6.14073 9.91389 6.17173 10.0379 6.17173C10.2039 6.17173 10.3259 6.10673 10.4039 5.97673C10.4839 5.84673 10.5219 5.62773 10.5179 5.31973C10.4759 5.40973 10.4059 5.48073 10.3079 5.53273C10.2099 5.58273 10.1009 5.60773 9.98089 5.60773C9.84689 5.60773 9.72689 5.58073 9.62089 5.52673C9.51689 5.47073 9.43489 5.38973 9.37489 5.28373C9.31489 5.17773 9.28489 5.04973 9.28489 4.89973C9.28489 4.68573 9.34689 4.51373 9.47089 4.38373C9.59489 4.25173 9.77089 4.18573 9.99889 4.18573C10.2789 4.18573 10.4749 4.27673 10.5869 4.45873C10.7009 4.64073 10.7579 4.91173 10.7579 5.27173C10.7579 5.52373 10.7349 5.73173 10.6889 5.89573C10.6449 6.05973 10.5689 6.18473 10.4609 6.27073C10.3549 6.35673 10.2089 6.39973 10.0229 6.39973C9.81889 6.39973 9.65989 6.34473 9.54589 6.23473C9.43189 6.12473 9.36689 5.98473 9.35089 5.81473H9.60289ZM10.0259 5.37673C10.1599 5.37673 10.2699 5.33573 10.3559 5.25373C10.4419 5.16973 10.4849 5.05673 10.4849 4.91473C10.4849 4.76473 10.4429 4.64373 10.3589 4.55173C10.2749 4.45973 10.1569 4.41373 10.0049 4.41373C9.86489 4.41373 9.75289 4.45773 9.66889 4.54573C9.58689 4.63373 9.54589 4.74973 9.54589 4.89373C9.54589 5.03973 9.58689 5.15673 9.66889 5.24473C9.75089 5.33273 9.86989 5.37673 10.0259 5.37673ZM11.4925 5.81473C11.5125 5.92873 11.5585 6.01673 11.6305 6.07873C11.7045 6.14073 11.8035 6.17173 11.9275 6.17173C12.0935 6.17173 12.2155 6.10673 12.2935 5.97673C12.3735 5.84673 12.4115 5.62773 12.4075 5.31973C12.3655 5.40973 12.2955 5.48073 12.1975 5.53273C12.0995 5.58273 11.9905 5.60773 11.8705 5.60773C11.7365 5.60773 11.6165 5.58073 11.5105 5.52673C11.4065 5.47073 11.3245 5.38973 11.2645 5.28373C11.2045 5.17773 11.1745 5.04973 11.1745 4.89973C11.1745 4.68573 11.2365 4.51373 11.3605 4.38373C11.4845 4.25173 11.6605 4.18573 11.8885 4.18573C12.1685 4.18573 12.3645 4.27673 12.4765 4.45873C12.5905 4.64073 12.6475 4.91173 12.6475 5.27173C12.6475 5.52373 12.6245 5.73173 12.5785 5.89573C12.5345 6.05973 12.4585 6.18473 12.3505 6.27073C12.2445 6.35673 12.0985 6.39973 11.9125 6.39973C11.7085 6.39973 11.5495 6.34473 11.4355 6.23473C11.3215 6.12473 11.2565 5.98473 11.2405 5.81473H11.4925ZM11.9155 5.37673C12.0495 5.37673 12.1595 5.33573 12.2455 5.25373C12.3315 5.16973 12.3745 5.05673 12.3745 4.91473C12.3745 4.76473 12.3325 4.64373 12.2485 4.55173C12.1645 4.45973 12.0465 4.41373 11.8945 4.41373C11.7545 4.41373 11.6425 4.45773 11.5585 4.54573C11.4765 4.63373 11.4355 4.74973 11.4355 4.89373C11.4355 5.03973 11.4765 5.15673 11.5585 5.24473C11.6405 5.33273 11.7595 5.37673 11.9155 5.37673ZM13.3822 5.81473C13.4022 5.92873 13.4482 6.01673 13.5202 6.07873C13.5942 6.14073 13.6932 6.17173 13.8172 6.17173C13.9832 6.17173 14.1052 6.10673 14.1832 5.97673C14.2632 5.84673 14.3012 5.62773 14.2972 5.31973C14.2552 5.40973 14.1852 5.48073 14.0872 5.53273C13.9892 5.58273 13.8802 5.60773 13.7602 5.60773C13.6262 5.60773 13.5062 5.58073 13.4002 5.52673C13.2962 5.47073 13.2142 5.38973 13.1542 5.28373C13.0942 5.17773 13.0642 5.04973 13.0642 4.89973C13.0642 4.68573 13.1262 4.51373 13.2502 4.38373C13.3742 4.25173 13.5502 4.18573 13.7782 4.18573C14.0582 4.18573 14.2542 4.27673 14.3662 4.45873C14.4802 4.64073 14.5372 4.91173 14.5372 5.27173C14.5372 5.52373 14.5142 5.73173 14.4682 5.89573C14.4242 6.05973 14.3482 6.18473 14.2402 6.27073C14.1342 6.35673 13.9882 6.39973 13.8022 6.39973C13.5982 6.39973 13.4392 6.34473 13.3252 6.23473C13.2112 6.12473 13.1462 5.98473 13.1302 5.81473H13.3822ZM13.8052 5.37673C13.9392 5.37673 14.0492 5.33573 14.1352 5.25373C14.2212 5.16973 14.2642 5.05673 14.2642 4.91473C14.2642 4.76473 14.2222 4.64373 14.1382 4.55173C14.0542 4.45973 13.9362 4.41373 13.7842 4.41373C13.6442 4.41373 13.5322 4.45773 13.4482 4.54573C13.3662 4.63373 13.3252 4.74973 13.3252 4.89373C13.3252 5.03973 13.3662 5.15673 13.4482 5.24473C13.5302 5.33273 13.6492 5.37673 13.8052 5.37673Z" fill="white"/>
</svg>
