<svg width="24" height="25" viewBox="0 0 24 25" fill="none" xmlns="http://www.w3.org/2000/svg">
<path d="M8.63238 3.49364L8.30019 3.11993L8.30019 3.11993L8.63238 3.49364ZM15.3676 3.49364L15.0354 3.86734V3.86734L15.3676 3.49364ZM15.1519 3.30185L15.484 2.92815V2.92815L15.1519 3.30185ZM8.84813 3.30185L9.18031 3.67556L9.18031 3.67556L8.84813 3.30185ZM4.06107 21.5453L4.35497 21.1408L4.06107 21.5453ZM2.95491 20.4391L3.35942 20.1452L2.95491 20.4391ZM21.0451 20.4391L20.6406 20.1452L21.0451 20.4391ZM19.9389 21.5453L19.645 21.1408L19.9389 21.5453ZM21.5 8.48512V13.5002H22.5V8.48512H21.5ZM13 22.0002H11V23.0002H13V22.0002ZM2.5 13.5002V8.48513H1.5V13.5002H2.5ZM14.8197 3.67556L15.0354 3.86734L15.6998 3.11993L15.484 2.92815L14.8197 3.67556ZM8.96456 3.86734L9.18031 3.67556L8.51595 2.92815L8.30019 3.11993L8.96456 3.86734ZM5.98493 5.00019C7.08335 5.00019 8.14359 4.59709 8.96456 3.86734L8.30019 3.11993C7.66227 3.68697 6.83844 4.00019 5.98493 4.00019V5.00019ZM15.0354 3.86734C15.8564 4.59709 16.9166 5.00019 18.0151 5.00019V4.00019C17.1616 4.00019 16.3377 3.68697 15.6998 3.11993L15.0354 3.86734ZM15.484 2.92815C13.4971 1.16197 10.5029 1.16197 8.51595 2.92815L9.18031 3.67556C10.7884 2.24617 13.2116 2.24617 14.8197 3.67556L15.484 2.92815ZM11 22.0002C9.114 22.0002 7.73966 21.9995 6.67112 21.8837C5.61193 21.769 4.91269 21.546 4.35497 21.1408L3.76718 21.9498C4.52378 22.4995 5.41914 22.7539 6.5634 22.8779C7.69831 23.0009 9.13627 23.0002 11 23.0002V22.0002ZM1.5 13.5002C1.5 15.3639 1.49931 16.8019 1.62227 17.9368C1.74625 19.0811 2.0007 19.9764 2.55041 20.733L3.35942 20.1452C2.95421 19.5875 2.73121 18.8883 2.61646 17.8291C2.50069 16.7605 2.5 15.3862 2.5 13.5002H1.5ZM4.35497 21.1408C3.97294 20.8632 3.63698 20.5273 3.35942 20.1452L2.55041 20.733C2.88964 21.1999 3.30026 21.6105 3.76718 21.9498L4.35497 21.1408ZM21.5 13.5002C21.5 15.3862 21.4993 16.7605 21.3835 17.8291C21.2688 18.8883 21.0458 19.5875 20.6406 20.1452L21.4496 20.733C21.9993 19.9764 22.2538 19.0811 22.3777 17.9368C22.5007 16.8019 22.5 15.3639 22.5 13.5002H21.5ZM13 23.0002C14.8637 23.0002 16.3017 23.0009 17.4366 22.8779C18.5809 22.7539 19.4762 22.4995 20.2328 21.9498L19.645 21.1408C19.0873 21.546 18.3881 21.769 17.3289 21.8837C16.2603 21.9995 14.886 22.0002 13 22.0002V23.0002ZM20.6406 20.1452C20.363 20.5273 20.0271 20.8632 19.645 21.1408L20.2328 21.9498C20.6997 21.6105 21.1104 21.1999 21.4496 20.733L20.6406 20.1452ZM22.5 8.48512C22.5 6.00817 20.492 4.00019 18.0151 4.00019V5.00019C19.9397 5.00019 21.5 6.56045 21.5 8.48512H22.5ZM2.5 8.48513C2.5 6.56045 4.06026 5.00019 5.98493 5.00019V4.00019C3.50797 4.00019 1.5 6.00817 1.5 8.48513H2.5ZM7.5 13.5002C7.5 15.9855 9.51472 18.0002 12 18.0002V17.0002C10.067 17.0002 8.5 15.4332 8.5 13.5002H7.5ZM12 18.0002C14.4853 18.0002 16.5 15.9855 16.5 13.5002H15.5C15.5 15.4332 13.933 17.0002 12 17.0002V18.0002ZM16.5 13.5002C16.5 11.0149 14.4853 9.00019 12 9.00019V10.0002C13.933 10.0002 15.5 11.5672 15.5 13.5002H16.5ZM12 9.00019C9.51472 9.00019 7.5 11.0149 7.5 13.5002H8.5C8.5 11.5672 10.067 10.0002 12 10.0002V9.00019Z" fill="white"/>
<path d="M17 8.5C17 9.05228 17.4477 9.5 18 9.5C18.5523 9.5 19 9.05228 19 8.5C19 7.94772 18.5523 7.5 18 7.5C17.4477 7.5 17 7.94772 17 8.5Z" fill="white"/>
</svg>
