<svg width="17" height="16" viewBox="0 0 17 16" fill="none" xmlns="http://www.w3.org/2000/svg">
<path fill-rule="evenodd" clip-rule="evenodd" d="M9.05554 3.50241C9.05554 3.71719 8.88142 3.8913 8.66665 3.8913C8.45187 3.8913 8.27776 3.71719 8.27776 3.50241C8.27776 3.28764 8.45187 3.11353 8.66665 3.11353C8.88142 3.11353 9.05554 3.28764 9.05554 3.50241ZM9.92641 4.08801C10.0093 3.91006 10.0555 3.71164 10.0555 3.50241C10.0555 2.73535 9.43371 2.11353 8.66665 2.11353C7.89958 2.11353 7.27776 2.73535 7.27776 3.50241C7.27776 3.71166 7.32403 3.9101 7.4069 4.08805C6.03376 4.26578 4.9075 4.76102 4.08068 5.65674C3.02131 6.80439 2.54183 8.51539 2.54183 10.7615L2.54195 10.7726C1.76728 10.8651 1.16669 11.5244 1.16669 12.324C1.16669 13.187 1.86624 13.8865 2.72919 13.8865L14.6042 13.8865C15.4671 13.8865 16.1667 13.187 16.1667 12.324C16.1667 11.5245 15.5662 10.8653 14.7917 10.7727L14.7918 10.7615C14.7918 8.51539 14.3123 6.80439 13.253 5.65674C12.4261 4.76094 11.2997 4.2657 9.92641 4.08801ZM13.7918 10.7615V10.7615H3.54183V10.7615C3.54183 8.63262 3.99984 7.21863 4.81548 6.33502C5.62309 5.46011 6.8692 5.01151 8.66683 5.01151C10.4645 5.01151 11.7106 5.46011 12.5182 6.33502C13.3338 7.21863 13.7918 8.63262 13.7918 10.7615ZM2.72919 11.7615H14.6042C14.9148 11.7615 15.1667 12.0134 15.1667 12.324C15.1667 12.6347 14.9148 12.8865 14.6042 12.8865L2.72919 12.8865C2.41853 12.8865 2.16669 12.6347 2.16669 12.324C2.16669 12.0134 2.41853 11.7615 2.72919 11.7615Z" fill="#FFB600"/>
<line x1="5.00819" y1="1.97237" x2="12.3909" y2="14.7596" stroke="#FFB600" stroke-width="0.5" stroke-linecap="round"/>
</svg>
