<svg width="16" height="16" viewBox="0 0 16 16" fill="none" xmlns="http://www.w3.org/2000/svg">
<path d="M8.49999 5.33331C8.49999 5.05717 8.27614 4.83331 7.99999 4.83331C7.72385 4.83331 7.49999 5.05717 7.49999 5.33331L8.49999 5.33331ZM5.99999 8.16665C5.72385 8.16665 5.49999 8.3905 5.49999 8.66665C5.49999 8.94279 5.72385 9.16665 5.99999 9.16665V8.16665ZM1.68765 1.77621C1.47202 1.94872 1.43706 2.26336 1.60956 2.47899C1.78207 2.69462 2.09671 2.72959 2.31234 2.55708L1.68765 1.77621ZM3.97901 1.22375C4.19464 1.05124 4.2296 0.736596 4.0571 0.520965C3.88459 0.305335 3.56994 0.270374 3.35431 0.442879L3.97901 1.22375ZM13.6876 2.55708C13.9033 2.72959 14.2179 2.69462 14.3904 2.47899C14.5629 2.26336 14.528 1.94872 14.3123 1.77621L13.6876 2.55708ZM12.6457 0.442879C12.43 0.270374 12.1154 0.305335 11.9429 0.520965C11.7704 0.736596 11.8053 1.05124 12.021 1.22375L12.6457 0.442879ZM7.99999 7.66665H7.49999H7.99999ZM7.49999 5.33331V7.66665L8.49999 7.66665L8.49999 5.33331L7.49999 5.33331ZM14.1667 7.99998C14.1667 11.4057 11.4058 14.1666 7.99999 14.1666V15.1666C11.958 15.1666 15.1667 11.958 15.1667 7.99998H14.1667ZM7.99999 14.1666C4.59424 14.1666 1.83333 11.4057 1.83333 7.99998H0.833328C0.833328 11.958 4.04195 15.1666 7.99999 15.1666V14.1666ZM1.83333 7.99998C1.83333 4.59422 4.59424 1.83331 7.99999 1.83331V0.833313C4.04195 0.833313 0.833328 4.04194 0.833328 7.99998H1.83333ZM7.99999 1.83331C11.4058 1.83331 14.1667 4.59422 14.1667 7.99998H15.1667C15.1667 4.04194 11.958 0.833313 7.99999 0.833313V1.83331ZM2.31234 2.55708L3.97901 1.22375L3.35431 0.442879L1.68765 1.77621L2.31234 2.55708ZM14.3123 1.77621L12.6457 0.442879L12.021 1.22375L13.6876 2.55708L14.3123 1.77621ZM5.99999 9.16665H6.99999V8.16665H5.99999V9.16665ZM7.49999 7.66665C7.5 7.94279 7.27614 8.16665 6.99999 8.16665V9.16665C7.82842 9.16665 8.5 8.49507 8.49999 7.66665L7.49999 7.66665Z" fill="#85858A"/>
</svg>
