<svg width="24" height="24" viewBox="0 0 24 24" fill="none" xmlns="http://www.w3.org/2000/svg">
<path fill-rule="evenodd" clip-rule="evenodd" d="M3.17859 4.875C3.17859 3.56332 4.24191 2.5 5.55359 2.5H8.94645C9.50859 2.5 9.9643 2.95572 9.9643 3.51786C9.9643 4.08 9.50859 4.53571 8.94645 4.53571H5.55359C5.36621 4.53571 5.2143 4.68762 5.2143 4.875V19.125C5.2143 19.3124 5.36621 19.4643 5.55359 19.4643H8.94645C9.50859 19.4643 9.9643 19.92 9.9643 20.4821C9.9643 21.0443 9.50859 21.5 8.94645 21.5H5.55359C4.24191 21.5 3.17859 20.4367 3.17859 19.125V4.875ZM17.3462 10.9821H9.62504C9.0629 10.9821 8.60719 11.4379 8.60719 12C8.60719 12.5622 9.0629 13.0179 9.62504 13.0179H17.3462L14.6732 15.691C14.2757 16.0885 14.2757 16.7329 14.6732 17.1304C15.0707 17.5279 15.7151 17.5279 16.1126 17.1304L20.5233 12.7197C20.9208 12.3222 20.9208 11.6778 20.5233 11.2803L16.1126 6.86955C15.7151 6.47206 15.0707 6.47206 14.6732 6.86955C14.2757 7.26705 14.2757 7.91153 14.6732 8.30902L17.3462 10.9821Z" fill="#E01B00"/>
</svg>
