<svg width="16" height="16" viewBox="0 0 16 16" fill="none" xmlns="http://www.w3.org/2000/svg">
<mask id="mask0_142_541" style="mask-type:alpha" maskUnits="userSpaceOnUse" x="1" y="2" width="14" height="12">
<path fill-rule="evenodd" clip-rule="evenodd" d="M1.97249 6.82963C1.64952 6.65281 1.33228 6.3681 1.33433 5.99992C1.3424 4.54993 1.40671 3.76467 1.91896 3.25241C2.50474 2.66663 3.44756 2.66663 5.33318 2.66663H10.6665C12.5521 2.66663 13.4949 2.66663 14.0807 3.25241C14.593 3.76467 14.6572 4.54994 14.6653 5.99995C14.6674 6.36813 14.3502 6.65283 14.0272 6.82963C13.6136 7.05603 13.3332 7.49523 13.3332 7.99996C13.3332 8.50469 13.6136 8.94389 14.0272 9.17029C14.3502 9.34709 14.6674 9.63183 14.6653 9.99996C14.6572 11.45 14.593 12.2352 14.0807 12.7475C13.4949 13.3333 12.5521 13.3333 10.6665 13.3333H5.33318C3.44756 13.3333 2.50474 13.3333 1.91896 12.7475C1.40671 12.2352 1.3424 11.45 1.33433 10C1.33228 9.63183 1.64952 9.34709 1.97249 9.17029C2.38606 8.94389 2.66651 8.50469 2.66651 7.99996C2.66651 7.49523 2.38606 7.05603 1.97249 6.82963Z" fill="white"/>
</mask>
<g mask="url(#mask0_142_541)">
<path d="M14.0807 12.7475L14.7878 13.4546L14.0807 12.7475ZM1.91896 12.7475L1.21185 13.4546H1.21185L1.91896 12.7475ZM14.0272 9.1703L14.5074 8.29316L14.0272 9.1703ZM14.6653 9.99996L13.6654 9.99443L14.6653 9.99996ZM14.6653 5.99996L13.6654 6.00552L14.6653 5.99996ZM14.0272 6.82963L14.5074 7.70676L14.0272 6.82963ZM1.33433 5.99992L0.334346 5.99436L1.33433 5.99992ZM1.97249 6.82963L1.49231 7.70676L1.97249 6.82963ZM1.21185 2.54531C0.768075 2.98908 0.558562 3.5248 0.454033 4.09385C0.354754 4.63432 0.338338 5.27734 0.334346 5.99436L2.33431 6.00549C2.33839 5.27252 2.35817 4.7979 2.42112 4.45518C2.47883 4.14104 2.55759 4.028 2.62607 3.95952L1.21185 2.54531ZM5.33317 1.66663C4.41863 1.66663 3.63213 1.6645 3.00538 1.74877C2.34986 1.8369 1.72151 2.03565 1.21185 2.54531L2.62607 3.95952C2.70219 3.8834 2.83813 3.78925 3.27187 3.73094C3.73438 3.66876 4.36209 3.66663 5.33317 3.66663V1.66663ZM10.6665 1.66663H5.33317V3.66663H10.6665V1.66663ZM14.7878 2.54531C14.2782 2.03565 13.6498 1.8369 12.9943 1.74877C12.3675 1.6645 11.581 1.66663 10.6665 1.66663V3.66663C11.6376 3.66663 12.2653 3.66876 12.7278 3.73094C13.1615 3.78925 13.2975 3.8834 13.3736 3.95952L14.7878 2.54531ZM15.6653 5.99439C15.6613 5.27736 15.6449 4.63434 15.5456 4.09386C15.4411 3.5248 15.2316 2.98909 14.7878 2.54531L13.3736 3.95952C13.4421 4.028 13.5208 4.14105 13.5786 4.45519C13.6415 4.79792 13.6613 5.27254 13.6654 6.00552L15.6653 5.99439ZM14.3332 7.99996C14.3332 7.87516 14.4014 7.76476 14.5074 7.70676L13.547 5.95247C12.8258 6.34726 12.3332 7.11536 12.3332 7.99996H14.3332ZM14.5074 8.29316C14.4014 8.23516 14.3332 8.12476 14.3332 7.99996H12.3332C12.3332 8.88456 12.8258 9.6527 13.547 10.0474L14.5074 8.29316ZM14.7878 13.4546C15.2316 13.0108 15.4411 12.4751 15.5456 11.906C15.6449 11.3656 15.6613 10.7226 15.6653 10.0056L13.6654 9.99443C13.6613 10.7274 13.6415 11.202 13.5786 11.5448C13.5208 11.8589 13.4421 11.9719 13.3736 12.0404L14.7878 13.4546ZM10.6665 14.3333C11.581 14.3333 12.3675 14.3354 12.9943 14.2512C13.6498 14.163 14.2782 13.9643 14.7878 13.4546L13.3736 12.0404C13.2975 12.1165 13.1615 12.2107 12.7278 12.269C12.2653 12.3312 11.6376 12.3333 10.6665 12.3333V14.3333ZM5.33317 14.3333H10.6665V12.3333H5.33317V14.3333ZM1.21185 13.4546C1.72151 13.9643 2.34986 14.163 3.00538 14.2512C3.63213 14.3354 4.41863 14.3333 5.33317 14.3333V12.3333C4.36209 12.3333 3.73438 12.3312 3.27187 12.269C2.83813 12.2107 2.70219 12.1165 2.62607 12.0404L1.21185 13.4546ZM0.334346 10.0056C0.338338 10.7226 0.354754 11.3656 0.454033 11.9061C0.558563 12.4752 0.768075 13.0108 1.21185 13.4546L2.62607 12.0404C2.55759 11.9719 2.47883 11.8589 2.42112 11.5448C2.35817 11.202 2.33839 10.7274 2.33431 9.99443L0.334346 10.0056ZM1.66651 7.99996C1.66651 8.12483 1.59827 8.23516 1.49231 8.29316L2.45267 10.0475C3.17384 9.6527 3.66651 8.88456 3.66651 7.99996H1.66651ZM1.49231 7.70676C1.59827 7.76476 1.66651 7.8751 1.66651 7.99996H3.66651C3.66651 7.11536 3.17384 6.34722 2.45267 5.95244L1.49231 7.70676ZM2.33431 9.99443C2.33463 10.0506 2.32203 10.0982 2.30819 10.1308C2.29553 10.1606 2.28489 10.171 2.29071 10.1642C2.29659 10.1574 2.3125 10.1409 2.34273 10.1178C2.37247 10.0952 2.40964 10.071 2.45267 10.0475L1.49231 8.29316C1.26327 8.4185 0.994501 8.60336 0.772341 8.8625C0.54572 9.12683 0.331611 9.51443 0.334346 10.0056L2.33431 9.99443ZM13.547 10.0474C13.59 10.071 13.6272 10.0952 13.657 10.1178C13.6872 10.1409 13.7031 10.1574 13.709 10.1642C13.7148 10.171 13.7041 10.1606 13.6915 10.1308C13.6776 10.0982 13.665 10.0506 13.6654 9.99443L15.6653 10.0056C15.668 9.51436 15.454 9.12683 15.2274 8.8625C15.0052 8.60336 14.7364 8.4185 14.5074 8.29316L13.547 10.0474ZM13.6654 6.00552C13.665 5.94937 13.6776 5.90174 13.6915 5.86915C13.7041 5.83934 13.7148 5.82891 13.709 5.8357C13.7031 5.84255 13.6872 5.85905 13.657 5.8821C13.6272 5.90479 13.59 5.92892 13.547 5.95247L14.5074 7.70676C14.7364 7.58143 15.0052 7.39656 15.2274 7.13743C15.454 6.8731 15.668 6.48554 15.6653 5.99439L13.6654 6.00552ZM0.334346 5.99436C0.331611 6.48552 0.54572 6.8731 0.772341 7.13743C0.994495 7.39656 1.26327 7.58143 1.49231 7.70676L2.45267 5.95244C2.40964 5.92889 2.37247 5.90476 2.34273 5.88207C2.3125 5.85902 2.29659 5.84252 2.29071 5.83567C2.28489 5.82887 2.29553 5.83931 2.30819 5.86911C2.32203 5.90171 2.33463 5.94934 2.33431 6.00549L0.334346 5.99436Z" fill="#85858A"/>
<path d="M6.5 3.83337V5.50004" stroke="#85858A" stroke-linecap="round"/>
<path d="M6.5 7.83337V8.83337" stroke="#85858A" stroke-linecap="round"/>
<path d="M6.5 11.1666V12.1666" stroke="#85858A" stroke-linecap="round"/>
</g>
</svg>
