<svg width="24" height="24" viewBox="0 0 24 24" fill="none" xmlns="http://www.w3.org/2000/svg">
<path fill-rule="evenodd" clip-rule="evenodd" d="M7.07692 8.92308C7.75631 8.92308 8.30769 9.47446 8.30769 10.1538V18.7692C8.30769 19.4486 7.75631 20 7.07692 20H4.61538C3.936 20 3.38461 19.4486 3.38461 18.7692V10.1538C3.38461 9.47446 3.936 8.92308 4.61538 8.92308H7.07692ZM19.3846 12.6154C20.064 12.6154 20.6154 13.1668 20.6154 13.8462V18.7692C20.6154 19.4486 20.064 20 19.3846 20H16.9231C16.2437 20 15.6923 19.4486 15.6923 18.7692V13.8462C15.6923 13.1668 16.2437 12.6154 16.9231 12.6154H19.3846ZM13.2308 4C13.9102 4 14.4615 4.55138 14.4615 5.23077V18.7692C14.4615 19.4486 13.9102 20 13.2308 20H10.7692C10.0898 20 9.53846 19.4486 9.53846 18.7692V5.23077C9.53846 4.55138 10.0898 4 10.7692 4H13.2308Z" fill="#85858A"/>
</svg>
