<svg width="24" height="20" viewBox="0 0 24 20" fill="none" xmlns="http://www.w3.org/2000/svg">
<path d="M23 10.75C23.4142 10.75 23.75 10.4142 23.75 10C23.75 9.58579 23.4142 9.25 23 9.25V10.75ZM1 9.25C0.585786 9.25 0.25 9.58579 0.25 10C0.25 10.4142 0.585786 10.75 1 10.75V9.25ZM3 14H2.25H3ZM3.75 13C3.75 12.5858 3.41421 12.25 3 12.25C2.58579 12.25 2.25 12.5858 2.25 13H3.75ZM9 19.75C9.41421 19.75 9.75 19.4142 9.75 19C9.75 18.5858 9.41421 18.25 9 18.25V19.75ZM8 19V18.25V19ZM9 1.75C9.41421 1.75 9.75 1.41421 9.75 1C9.75 0.585787 9.41421 0.25 9 0.25V1.75ZM2.25 7C2.25 7.41421 2.58579 7.75 3 7.75C3.41421 7.75 3.75 7.41421 3.75 7H2.25ZM21 6H20.25H21ZM20.25 7C20.25 7.41421 20.5858 7.75 21 7.75C21.4142 7.75 21.75 7.41421 21.75 7H20.25ZM15 0.25C14.5858 0.25 14.25 0.585786 14.25 1C14.25 1.41421 14.5858 1.75 15 1.75V0.25ZM16 1V0.25V1ZM16 19V18.25V19ZM15 18.25C14.5858 18.25 14.25 18.5858 14.25 19C14.25 19.4142 14.5858 19.75 15 19.75V18.25ZM21.75 13C21.75 12.5858 21.4142 12.25 21 12.25C20.5858 12.25 20.25 12.5858 20.25 13H21.75ZM21 14H21.75H21ZM23 9.25H1V10.75H23V9.25ZM3.75 14V13H2.25V14H3.75ZM9 18.25H8V19.75H9V18.25ZM2.25 14C2.25 17.1756 4.82436 19.75 8 19.75V18.25C5.65279 18.25 3.75 16.3472 3.75 14H2.25ZM8 1.75H9V0.25H8V1.75ZM3.75 7V6H2.25V7H3.75ZM8 0.25C4.82436 0.25 2.25 2.82436 2.25 6H3.75C3.75 3.65279 5.65279 1.75 8 1.75V0.25ZM20.25 6V7H21.75V6H20.25ZM15 1.75L16 1.75V0.25L15 0.25V1.75ZM21.75 6C21.75 2.82436 19.1756 0.25 16 0.25V1.75C18.3472 1.75 20.25 3.65279 20.25 6H21.75ZM16 18.25H15V19.75H16V18.25ZM20.25 13V14H21.75V13H20.25ZM16 19.75C19.1756 19.75 21.75 17.1756 21.75 14H20.25C20.25 16.3472 18.3472 18.25 16 18.25V19.75Z" fill="#85858A"/>
</svg>
