<svg width="16" height="16" viewBox="0 0 16 16" fill="none" xmlns="http://www.w3.org/2000/svg">
<path d="M13.8528 9.24957L14.259 9.54116L13.8528 9.24957ZM13.8528 6.7501L13.4466 7.04169L13.8528 6.7501ZM14.442 7.99984H13.942H14.442ZM2.14703 9.24957L2.55321 8.95798L2.14703 9.24957ZM2.14703 6.7501L1.74086 6.45851L2.14703 6.7501ZM1.55786 7.99984H1.05786H1.55786ZM1.74086 9.54116C2.31966 10.3474 3.18101 11.4069 4.23441 12.2694C5.28208 13.1272 6.57262 13.8332 7.99992 13.8332V12.8332C6.90274 12.8332 5.83265 12.2855 4.86792 11.4956C3.90891 10.7104 3.10605 9.72807 2.55321 8.95798L1.74086 9.54116ZM7.99992 13.8332C9.42723 13.8332 10.7178 13.1272 11.7654 12.2694C12.8188 11.4069 13.6802 10.3474 14.259 9.54116L13.4466 8.95798C12.8938 9.72807 12.0909 10.7104 11.1319 11.4956C10.1672 12.2855 9.0971 12.8332 7.99992 12.8332V13.8332ZM14.259 6.45851C13.6802 5.65227 12.8188 4.59281 11.7654 3.73031C10.7178 2.8725 9.42723 2.1665 7.99992 2.1665V3.1665C9.0971 3.1665 10.1672 3.71414 11.1319 4.50405C12.0909 5.28926 12.8938 6.27161 13.4466 7.04169L14.259 6.45851ZM7.99992 2.1665C6.57262 2.1665 5.28208 2.8725 4.23441 3.73031C3.18101 4.59281 2.31966 5.65227 1.74086 6.45851L2.55321 7.04169C3.10605 6.27161 3.90891 5.28926 4.86792 4.50405C5.83265 3.71414 6.90274 3.1665 7.99992 3.1665V2.1665ZM14.259 9.54116C14.6286 9.02634 14.942 8.61891 14.942 7.99984H13.942C13.942 8.23885 13.8626 8.37855 13.4466 8.95798L14.259 9.54116ZM13.4466 7.04169C13.8626 7.62113 13.942 7.76082 13.942 7.99984H14.942C14.942 7.38077 14.6286 6.97333 14.259 6.45851L13.4466 7.04169ZM2.55321 8.95798C2.13723 8.37855 2.05786 8.23885 2.05786 7.99984H1.05786C1.05786 8.61891 1.37127 9.02634 1.74086 9.54116L2.55321 8.95798ZM1.74086 6.45851C1.37127 6.97333 1.05786 7.38077 1.05786 7.99984H2.05786C2.05786 7.76082 2.13723 7.62113 2.55321 7.04169L1.74086 6.45851ZM5.49992 7.99984C5.49992 9.38055 6.61921 10.4998 7.99992 10.4998V9.49984C7.17149 9.49984 6.49992 8.82826 6.49992 7.99984H5.49992ZM7.99992 10.4998C9.38063 10.4998 10.4999 9.38055 10.4999 7.99984H9.49992C9.49992 8.82826 8.82835 9.49984 7.99992 9.49984V10.4998ZM10.4999 7.99984C10.4999 6.61913 9.38063 5.49984 7.99992 5.49984V6.49984C8.82835 6.49984 9.49992 7.17141 9.49992 7.99984H10.4999ZM7.99992 5.49984C6.61921 5.49984 5.49992 6.61913 5.49992 7.99984H6.49992C6.49992 7.17141 7.17149 6.49984 7.99992 6.49984V5.49984Z" fill="#85858A"/>
</svg>
