<svg width="17" height="16" viewBox="0 0 17 16" fill="none" xmlns="http://www.w3.org/2000/svg">
<path d="M11.75 7.5C11.75 5.75 10.5 4.50001 8.75 4.50001" stroke="#85858A" stroke-width="0.8" stroke-linecap="round" stroke-linejoin="round"/>
<path d="M13.75 7.5C13.75 4.50001 11.75 2.50001 8.75 2.50001" stroke="#85858A" stroke-width="0.8" stroke-linecap="round" stroke-linejoin="round"/>
<path fill-rule="evenodd" clip-rule="evenodd" d="M3.42335 2.69443C3.79888 2.37452 4.38025 1.9799 5.00764 2.0008L5.02604 2.00141L5.04434 2.00337C5.39222 2.0407 5.70803 2.21432 5.97862 2.47564L5.98031 2.47727C6.16557 2.65787 6.49255 3.03997 6.77685 3.41042C6.9209 3.59814 7.0617 3.79282 7.17317 3.96711C7.2288 4.05407 7.28085 4.14175 7.32315 4.2248C7.3613 4.2997 7.40707 4.40041 7.42956 4.50765C7.54782 5.05702 7.29991 5.48974 7.16043 5.73321C7.15497 5.74273 7.14968 5.75197 7.14458 5.76091L7.13309 5.78108C7.09252 5.85118 7.04076 5.92938 6.99583 5.99729L6.99087 6.00479C6.89637 6.14765 6.81424 6.2736 6.76172 6.38592C6.74657 6.41832 6.73718 6.4429 6.73152 6.46032C6.92195 6.91119 7.1889 7.35796 7.51224 7.77601C7.90182 8.24039 8.50139 8.81647 8.80623 9.0312C9.1148 9.24856 9.43343 9.43056 9.75724 9.57051C9.77742 9.56457 9.80691 9.55386 9.84657 9.53552C9.96458 9.48097 10.0953 9.39659 10.239 9.30253L10.2457 9.29816C10.309 9.25672 10.3807 9.20978 10.4447 9.1725L10.4482 9.17045L10.4688 9.15888C10.4774 9.15405 10.4863 9.14906 10.4954 9.14393C10.743 9.00428 11.1754 8.76038 11.7301 8.87668L11.7313 8.87693L11.7288 8.87643L11.7301 8.87668C11.8356 8.89853 11.9355 8.94307 12.0104 8.9804C12.0928 9.0215 12.1801 9.07208 12.2671 9.12629C12.4414 9.23492 12.6367 9.37218 12.8255 9.51299C13.1961 9.78943 13.5815 10.1095 13.7657 10.2953L13.7641 10.2937L13.7673 10.2969L13.7657 10.2953C14.0278 10.556 14.2187 10.8769 14.2477 11.2512L14.2484 11.2601L14.2488 11.269C14.2744 11.8848 13.89 12.4503 13.5737 12.8181C13.2531 13.1908 12.887 13.4911 12.6956 13.612C12.6472 13.6426 12.7295 13.5878 12.6956 13.612C11.9348 14.1562 10.9834 14.0894 10.0078 13.6504C9.98467 13.64 10.0275 13.6584 10.0078 13.6504C8.96468 13.2254 7.76288 12.3602 6.63541 11.3501C6.23289 10.9895 5.45743 10.2295 5.21322 9.94994C5.21486 9.95172 5.21651 9.95351 5.21816 9.9553L5.20787 9.94379C5.20962 9.94582 5.2114 9.94786 5.21322 9.94994C4.07588 8.71709 3.08708 7.36301 2.60763 6.22787C2.59699 6.20266 2.6175 6.2489 2.60763 6.22787C2.37621 5.73458 2.25 5.25043 2.25 4.79295C2.25 4.33716 2.37889 3.91691 2.63445 3.5541C2.62891 3.56307 2.62373 3.57175 2.61894 3.58012L2.64716 3.53626C2.64289 3.54219 2.63865 3.54814 2.63445 3.5541C2.69438 3.45719 2.79725 3.32692 2.91215 3.19702C3.04579 3.04592 3.22108 2.86674 3.42335 2.69443ZM9.73027 9.57668L9.73166 9.57653L9.73027 9.57668ZM6.72406 6.48925L6.72421 6.48809L6.72406 6.48925ZM3.48769 4.07566L3.48704 4.07651L3.47408 4.09918L3.45883 4.12037C3.32264 4.30961 3.25 4.52992 3.25 4.79295C3.25 5.07012 3.32792 5.41104 3.51661 5.81091L3.52121 5.82065L3.52538 5.83058C3.93864 6.81398 4.84322 8.07488 5.95294 9.27699L5.95817 9.28266L5.96323 9.28849C6.16137 9.51689 6.91005 10.2536 7.30266 10.6053C8.40144 11.5897 9.50549 12.3678 10.3926 12.7273L10.4018 12.7311L10.4108 12.7351C11.2316 13.1064 11.768 13.051 12.1226 12.7924L12.1401 12.7796L12.1586 12.7684C12.2366 12.7213 12.5388 12.4878 12.8156 12.166C13.1036 11.8311 13.2536 11.5271 13.2499 11.3202C13.2423 11.2521 13.2025 11.1452 13.0597 11.0035L13.0565 11.0003C12.9256 10.8681 12.5862 10.5821 12.2276 10.3146C12.0512 10.183 11.8802 10.0635 11.7382 9.97496C11.6669 9.93057 11.6085 9.89746 11.564 9.87525C11.5365 9.86152 11.5214 9.8556 11.5168 9.85378C11.3582 9.82321 11.228 9.87943 10.9585 10.0308L10.945 10.0384C10.9065 10.061 10.857 10.0932 10.7866 10.1393L10.7753 10.1467C10.6449 10.232 10.4572 10.3549 10.2662 10.4432C10.0978 10.5211 9.77908 10.6454 9.45689 10.5285L9.44625 10.5247L9.43579 10.5203C9.01477 10.3457 8.6111 10.1169 8.23036 9.84874C7.82786 9.56522 7.1607 8.91441 6.73927 8.41052L6.73336 8.40346L6.72772 8.39619C6.33795 7.89367 6.01053 7.34367 5.77918 6.77425L5.7765 6.76763L5.774 6.76093C5.6544 6.44062 5.77976 6.12509 5.85585 5.96236C5.94265 5.77673 6.06392 5.59348 6.1491 5.46477C6.15172 5.46082 6.1543 5.45692 6.15684 5.45307C6.20795 5.37581 6.24302 5.32245 6.26684 5.28144L6.27581 5.2657C6.43032 4.99464 6.48266 4.87059 6.45322 4.72414C6.45138 4.71957 6.44551 4.70503 6.43209 4.67868C6.40968 4.63468 6.37606 4.57677 6.33075 4.50591C6.24035 4.36457 6.11817 4.19467 5.98353 4.01923C5.71101 3.66412 5.41838 3.32624 5.28311 3.19416C5.14225 3.05837 5.03029 3.01244 4.95492 3.00002C4.73125 3.00224 4.41235 3.16557 4.07183 3.45566C3.91107 3.5926 3.76908 3.73757 3.66119 3.85954C3.60743 3.92032 3.56383 3.97348 3.53193 4.01491C3.50421 4.05089 3.49105 4.07062 3.48769 4.07566Z" fill="#85858A"/>
</svg>
