<svg width="14" height="14" viewBox="0 0 14 14" fill="none" xmlns="http://www.w3.org/2000/svg">
<path d="M13.5 7.29995C13.5 7.02381 13.2761 6.79995 13 6.79995C12.7239 6.79995 12.5 7.02381 12.5 7.29995H13.5ZM10.6006 2.49995L10.3002 2.8997L10.6006 2.49995ZM11.8 3.69937L11.4003 3.9997L11.4207 4.02688L11.4446 4.05103L11.8 3.69937ZM12.6941 0.69772C12.6929 0.421581 12.468 0.198724 12.1919 0.199956C11.9157 0.201188 11.6929 0.426042 11.6941 0.702182L12.6941 0.69772ZM12.1994 1.89138L12.6994 1.88915V1.88915L12.1994 1.89138ZM9.99143 4.09938L9.9892 4.59937L9.99143 4.09938ZM8.80223 3.59407C8.52609 3.59284 8.30124 3.81569 8.30001 4.09183C8.29878 4.36797 8.52163 4.59283 8.79777 4.59406L8.80223 3.59407ZM11.9543 3.64155L12.3497 3.94757V3.94757L11.9543 3.64155ZM11.7416 3.85425L12.0476 4.24967L12.0476 4.24967L11.7416 3.85425ZM11.8547 3.75465L12.2083 4.10821L11.8547 3.75465ZM12.5 7.29995C12.5 10.3375 10.0376 12.8 7 12.8V13.8C10.5899 13.8 13.5 10.8898 13.5 7.29995H12.5ZM7 12.8C3.96243 12.8 1.5 10.3375 1.5 7.29995H0.5C0.5 10.8898 3.41015 13.8 7 13.8V12.8ZM1.5 7.29995C1.5 4.26239 3.96243 1.79995 7 1.79995V0.799951C3.41015 0.799951 0.5 3.7101 0.5 7.29995H1.5ZM7 1.79995C8.23898 1.79995 9.38098 2.20903 10.3002 2.8997L10.9009 2.1002C9.81441 1.28389 8.463 0.799951 7 0.799951V1.79995ZM10.3002 2.8997C10.7167 3.21259 11.0874 3.58325 11.4003 3.9997L12.1997 3.39903C11.8303 2.90727 11.3927 2.46968 10.9009 2.1002L10.3002 2.8997ZM11.6941 0.702182L11.6994 1.89361L12.6994 1.88915L12.6941 0.69772L11.6941 0.702182ZM9.99366 3.59938L8.80223 3.59407L8.79777 4.59406L9.9892 4.59937L9.99366 3.59938ZM11.6994 1.89361C11.7016 2.38044 11.7023 2.70331 11.6757 2.94663C11.6502 3.17989 11.605 3.27591 11.5589 3.33554L12.3497 3.94757C12.5551 3.68223 12.6345 3.37824 12.6698 3.05519C12.704 2.7422 12.7015 2.35246 12.6994 1.88915L11.6994 1.89361ZM9.9892 4.59937C10.4525 4.60144 10.8422 4.60394 11.1552 4.56976C11.4783 4.53448 11.7823 4.45501 12.0476 4.24967L11.4356 3.45883C11.376 3.50498 11.2799 3.55019 11.0467 3.57567C10.8034 3.60224 10.4805 3.60156 9.99366 3.59938L9.9892 4.59937ZM11.5589 3.33554C11.541 3.35862 11.5217 3.38051 11.5012 3.4011L12.2083 4.10821C12.2587 4.05776 12.306 4.00411 12.3497 3.94757L11.5589 3.33554ZM11.5012 3.4011C11.4806 3.42169 11.4587 3.44097 11.4356 3.45883L12.0476 4.24967C12.1042 4.20591 12.1578 4.15866 12.2083 4.10821L11.5012 3.4011ZM11.4446 4.05103L11.4993 4.10632L12.2101 3.40299L12.1554 3.3477L11.4446 4.05103Z" fill="#85858A"/>
</svg>
