<svg width="22" height="23" viewBox="0 0 22 23" fill="none" xmlns="http://www.w3.org/2000/svg">
<path d="M11.75 7.5C11.75 7.08579 11.4142 6.75 11 6.75C10.5858 6.75 10.25 7.08579 10.25 7.5H11.75ZM8 11.75C7.58579 11.75 7.25 12.0858 7.25 12.5C7.25 12.9142 7.58579 13.25 8 13.25V11.75ZM1.53148 2.16435C1.20803 2.42311 1.15559 2.89507 1.41435 3.21852C1.67311 3.54197 2.14507 3.59441 2.46852 3.33565L1.53148 2.16435ZM4.96852 1.33565C5.29197 1.07689 5.34441 0.604925 5.08565 0.281479C4.82689 -0.0419677 4.35493 -0.0944088 4.03148 0.164348L4.96852 1.33565ZM19.5315 3.33565C19.8549 3.59441 20.3269 3.54197 20.5857 3.21852C20.8444 2.89507 20.792 2.42311 20.4685 2.16435L19.5315 3.33565ZM17.9685 0.164348C17.6451 -0.0944088 17.1731 -0.0419677 16.9143 0.281479C16.6556 0.604925 16.708 1.07689 17.0315 1.33565L17.9685 0.164348ZM11 11H10.25H11ZM10.25 7.5L10.25 11L11.75 11L11.75 7.5H10.25ZM20.25 11.5C20.25 16.6086 16.1086 20.75 11 20.75V22.25C16.9371 22.25 21.75 17.4371 21.75 11.5H20.25ZM11 20.75C5.89137 20.75 1.75 16.6086 1.75 11.5H0.25C0.25 17.4371 5.06294 22.25 11 22.25V20.75ZM1.75 11.5C1.75 6.39137 5.89137 2.25 11 2.25V0.75C5.06294 0.75 0.25 5.56294 0.25 11.5H1.75ZM11 2.25C16.1086 2.25 20.25 6.39137 20.25 11.5H21.75C21.75 5.56294 16.9371 0.75 11 0.75V2.25ZM2.46852 3.33565L4.96852 1.33565L4.03148 0.164348L1.53148 2.16435L2.46852 3.33565ZM20.4685 2.16435L17.9685 0.164348L17.0315 1.33565L19.5315 3.33565L20.4685 2.16435ZM8 13.25H9.5V11.75H8V13.25ZM10.25 11C10.25 11.4142 9.91421 11.75 9.5 11.75V13.25C10.7426 13.25 11.75 12.2426 11.75 11L10.25 11Z" fill="#E01B00"/>
</svg>
