<svg width="24" height="24" viewBox="0 0 24 24" fill="none" xmlns="http://www.w3.org/2000/svg">
<path d="M4.2932 20.0953L4.73404 19.4886L4.2932 20.0953ZM2.36656 16.7583L3.11245 16.6799L2.36656 16.7583ZM18.5637 9.63158L19.2132 9.25658L18.5637 9.63158ZM21.6337 16.7583L22.3796 16.8367L21.6337 16.7583ZM19.707 20.0953L20.1479 20.7021L19.707 20.0953ZM13.9268 3.40952L13.6217 4.09468L13.9268 3.40952ZM10.0735 3.40952L10.3785 4.09468L10.0735 3.40952ZM12.7501 7.73684C12.7501 7.32263 12.4143 6.98684 12.0001 6.98684C11.5859 6.98684 11.2501 7.32263 11.2501 7.73684H12.7501ZM11.2501 13.4211C11.2501 13.8353 11.5859 14.1711 12.0001 14.1711C12.4143 14.1711 12.7501 13.8353 12.7501 13.4211H11.2501ZM12.0001 20.25C9.83141 20.25 8.25687 20.2492 7.06667 20.1401C5.87257 20.0305 5.18946 19.8195 4.73404 19.4886L3.85236 20.7021C4.64209 21.2759 5.65852 21.5172 6.92963 21.6338C8.20464 21.7508 9.86098 21.75 12.0001 21.75V20.25ZM4.78704 9.25658C3.71747 11.1091 2.88865 12.5432 2.35245 13.7059C1.81788 14.865 1.51863 15.8659 1.62067 16.8367L3.11245 16.6799C3.05361 16.12 3.21239 15.4229 3.71457 14.334C4.21511 13.2487 5.00172 11.8847 6.08608 10.0066L4.78704 9.25658ZM4.73404 19.4886C3.81993 18.8244 3.23056 17.8036 3.11245 16.6799L1.62067 16.8367C1.78321 18.3832 2.59433 19.7881 3.85236 20.7021L4.73404 19.4886ZM17.9142 10.0066C18.9985 11.8847 19.7851 13.2487 20.2857 14.334C20.7878 15.4229 20.9466 16.12 20.8878 16.6799L22.3796 16.8367C22.4816 15.8659 22.1824 14.865 21.6478 13.7059C21.1116 12.5432 20.2828 11.1091 19.2132 9.25658L17.9142 10.0066ZM12.0001 21.75C14.1393 21.75 15.7956 21.7508 17.0706 21.6338C18.3417 21.5172 19.3581 21.2759 20.1479 20.7021L19.2662 19.4886C18.8108 19.8195 18.1277 20.0305 16.9336 20.1401C15.7434 20.2492 14.1688 20.25 12.0001 20.25V21.75ZM20.8878 16.6799C20.7697 17.8036 20.1803 18.8244 19.2662 19.4886L20.1479 20.7021C21.4059 19.7881 22.217 18.3832 22.3796 16.8367L20.8878 16.6799ZM19.2132 9.25658C18.1436 7.40403 17.3161 5.96922 16.5773 4.92352C15.8408 3.88101 15.1236 3.1214 14.2318 2.72436L13.6217 4.09468C14.136 4.32365 14.6603 4.80971 15.3522 5.78906C16.0419 6.76521 16.8298 8.12842 17.9142 10.0066L19.2132 9.25658ZM6.08608 10.0066C7.17043 8.12842 7.95835 6.76521 8.64802 5.78906C9.33994 4.80971 9.86426 4.32365 10.3785 4.09468L9.76842 2.72436C8.87665 3.1214 8.15948 3.88101 7.42293 4.92352C6.68413 5.96922 5.85661 7.40403 4.78704 9.25658L6.08608 10.0066ZM14.2318 2.72436C12.8112 2.09188 11.189 2.09188 9.76842 2.72436L10.3785 4.09468C11.4107 3.63511 12.5895 3.63511 13.6217 4.09468L14.2318 2.72436ZM11.2501 7.73684V13.4211H12.7501V7.73684H11.2501Z" fill="#85858A"/>
<path d="M12.9475 16.2632C12.9475 16.7864 12.5233 17.2105 12.0001 17.2105C11.4769 17.2105 11.0527 16.7864 11.0527 16.2632C11.0527 15.7399 11.4769 15.3158 12.0001 15.3158C12.5233 15.3158 12.9475 15.7399 12.9475 16.2632Z" fill="#85858A"/>
</svg>
