<svg width="25" height="24" viewBox="0 0 25 24" fill="none" xmlns="http://www.w3.org/2000/svg">
<path fill-rule="evenodd" clip-rule="evenodd" d="M3.75 10.7812C3.75 10.7712 3.75 10.76 3.75 10.75C3.75 5.92125 7.67125 2 12.5 2C17.3287 2 21.25 5.92125 21.25 10.75C21.25 10.76 21.25 10.7712 21.25 10.7812C21.23 17.32 14.9375 21.2225 12.9488 21.9175C12.8162 21.9638 12.6575 22 12.5 22C12.3425 22 12.1912 21.97 12.0512 21.9175C10.0625 21.2225 3.77 17.32 3.75 10.7812ZM12.5 7C14.57 7 16.25 8.68 16.25 10.75C16.25 12.82 14.57 14.5 12.5 14.5C10.43 14.5 8.75 12.82 8.75 10.75C8.75 8.68 10.43 7 12.5 7Z" fill="#85858A"/>
</svg>
