<svg width="16" height="16" viewBox="0 0 16 16" fill="none" xmlns="http://www.w3.org/2000/svg">
<path d="M13.8529 9.24975L14.2591 9.54134L13.8529 9.24975ZM13.8529 6.75029L13.4467 7.04188L13.8529 6.75029ZM14.4421 8.00002H13.9421H14.4421ZM2.14711 9.24975L2.55329 8.95816L2.14711 9.24975ZM2.14711 6.75029L1.74094 6.4587L2.14711 6.75029ZM1.55794 8.00002H1.05794H1.55794ZM1.74094 9.54135C2.31974 10.3476 3.18109 11.407 4.23449 12.2695C5.28217 13.1274 6.5727 13.8334 8 13.8334V12.8334C6.90282 12.8334 5.83273 12.2857 4.868 11.4958C3.90899 10.7106 3.10613 9.72825 2.55329 8.95816L1.74094 9.54135ZM8 13.8334C9.42731 13.8334 10.7178 13.1274 11.7655 12.2695C12.8189 11.407 13.6803 10.3476 14.2591 9.54134L13.4467 8.95816C12.8939 9.72825 12.091 10.7106 11.132 11.4958C10.1673 12.2857 9.09718 12.8334 8 12.8334V13.8334ZM14.2591 6.4587C13.6803 5.65245 12.8189 4.593 11.7655 3.7305C10.7178 2.87268 9.42731 2.16669 8 2.16669V3.16669C9.09718 3.16669 10.1673 3.71433 11.132 4.50423C12.091 5.28945 12.8939 6.27179 13.4467 7.04188L14.2591 6.4587ZM8 2.16669C6.5727 2.16669 5.28216 2.87268 4.23449 3.7305C3.18109 4.593 2.31974 5.65245 1.74094 6.4587L2.55329 7.04188C3.10613 6.27179 3.90899 5.28945 4.868 4.50423C5.83273 3.71433 6.90282 3.16669 8 3.16669V2.16669ZM14.2591 9.54134C14.6287 9.02652 14.9421 8.61909 14.9421 8.00002H13.9421C13.9421 8.23904 13.8627 8.37873 13.4467 8.95816L14.2591 9.54134ZM13.4467 7.04188C13.8627 7.62131 13.9421 7.761 13.9421 8.00002H14.9421C14.9421 7.38095 14.6286 6.97352 14.2591 6.4587L13.4467 7.04188ZM2.55329 8.95816C2.13731 8.37873 2.05794 8.23904 2.05794 8.00002H1.05794C1.05794 8.61909 1.37135 9.02653 1.74094 9.54135L2.55329 8.95816ZM1.74094 6.4587C1.37135 6.97352 1.05794 7.38095 1.05794 8.00002H2.05794C2.05794 7.761 2.13731 7.62131 2.55329 7.04188L1.74094 6.4587ZM5.5 8.00002C5.5 9.38073 6.61929 10.5 8 10.5V9.50002C7.17158 9.50002 6.5 8.82845 6.5 8.00002H5.5ZM8 10.5C9.38071 10.5 10.5 9.38073 10.5 8.00002H9.5C9.5 8.82845 8.82843 9.50002 8 9.50002V10.5ZM10.5 8.00002C10.5 6.61931 9.38071 5.50002 8 5.50002V6.50002C8.82843 6.50002 9.5 7.17159 9.5 8.00002H10.5ZM8 5.50002C6.61929 5.50002 5.5 6.61931 5.5 8.00002H6.5C6.5 7.17159 7.17158 6.50002 8 6.50002V5.50002Z" fill="#85858A"/>
</svg>
