<svg width="17" height="16" viewBox="0 0 17 16" fill="none" xmlns="http://www.w3.org/2000/svg">
<circle cx="11.4808" cy="7.07689" r="0.461538" fill="#85858A"/>
<path fill-rule="evenodd" clip-rule="evenodd" d="M10.9266 4.94957C11.3009 4.98864 11.6292 5.04044 11.9167 5.10752C11.9345 4.92021 11.9423 4.71517 11.9423 4.49085C11.9423 2.43963 11.2906 2 8.25002 2C5.2094 2 4.55771 2.43963 4.55771 4.49085C4.55771 4.71516 4.5655 4.9202 4.58336 5.1075C4.8708 5.04042 5.19916 4.98864 5.57347 4.94956C5.56348 4.82164 5.55771 4.67028 5.55771 4.49085C5.55771 3.50042 5.73365 3.36542 5.82288 3.30522C5.91945 3.24007 6.11987 3.15247 6.5386 3.08969C6.9529 3.02758 7.50477 3 8.25002 3C8.99526 3 9.54714 3.02758 9.96143 3.08969C10.3802 3.15247 10.5806 3.24007 10.6772 3.30522C10.7664 3.36542 10.9423 3.50042 10.9423 4.49085C10.9423 4.67028 10.9365 4.82164 10.9266 4.94957Z" fill="#85858A"/>
<path d="M5.05771 11.2308C5.05771 12.3831 5.23274 12.8358 5.55994 13.0801C5.74012 13.2147 6.01646 13.3255 6.46336 13.3983C6.90945 13.471 7.48552 13.5 8.23509 13.5C8.98456 13.5 9.56275 13.4711 10.0119 13.3983C10.462 13.3253 10.7432 13.2142 10.9278 13.0782C11.2616 12.8323 11.4423 12.3783 11.4423 11.2308C11.4423 10.5222 11.441 10.0474 11.3898 9.70337C11.3408 9.37391 11.2597 9.26806 11.1797 9.20827C11.0687 9.12536 10.8455 9.0453 10.337 9.00309C9.84131 8.96195 9.17106 8.96154 8.23509 8.96154C7.30651 8.96154 6.64206 8.96196 6.15079 9.00307C5.64687 9.04523 5.42703 9.12512 5.31816 9.20711C5.2394 9.26641 5.15857 9.37235 5.10981 9.70279C5.059 10.0471 5.05771 10.5223 5.05771 11.2308Z" stroke="#85858A" stroke-linecap="round" stroke-linejoin="round"/>
<path fill-rule="evenodd" clip-rule="evenodd" d="M3.71155 8.22475C3.71155 8.98249 3.74394 9.45865 3.83004 9.7857C3.90244 10.0607 3.99442 10.1654 4.12069 10.2472C4.21836 10.3105 4.36582 10.3767 4.59372 10.4371C4.56848 10.6739 4.5577 10.9375 4.5577 11.2307C4.5577 11.3082 4.55845 11.3835 4.56002 11.4569C2.91687 11.1052 2.71155 10.2415 2.71155 8.22475C2.71155 5.20111 3.63463 4.76917 8.25001 4.76917C13.3269 4.76917 13.7885 5.20111 13.7885 8.22475C13.7885 10.2415 13.5832 11.1052 11.94 11.4569C11.9416 11.3835 11.9423 11.3082 11.9423 11.2307C11.9423 10.9375 11.9315 10.6739 11.9063 10.4371C12.1342 10.3767 12.2817 10.3105 12.3793 10.2472C12.5056 10.1654 12.5976 10.0607 12.67 9.7857C12.7561 9.45865 12.7885 8.98249 12.7885 8.22475C12.7885 7.46702 12.7561 6.99085 12.67 6.6638C12.5976 6.38877 12.5056 6.28415 12.3793 6.20233C12.1995 6.08582 11.8509 5.95938 11.1421 5.87725C10.4469 5.79669 9.51604 5.76917 8.25001 5.76917C7.10195 5.76917 6.22892 5.79659 5.55595 5.87686C4.87442 5.95816 4.49088 6.08439 4.26554 6.21997C3.96134 6.40298 3.71155 6.73331 3.71155 8.22475Z" fill="#85858A"/>
</svg>
