<svg width="14" height="12" viewBox="0 0 14 12" fill="none" xmlns="http://www.w3.org/2000/svg">
<path fill-rule="evenodd" clip-rule="evenodd" d="M1.855 3.38376L1.92763 3.20004C2.51913 1.72129 3.95239 0.75 5.54576 0.75H8.45424C10.0476 0.75 11.4809 1.72129 12.0724 3.20004L12.145 3.38376H12.1494C12.1826 3.37501 12.2168 3.375 12.25 3.375H14V3.38376C14 3.83876 13.8163 4.28493 13.489 4.61743C13.356 4.74868 13.2038 4.85378 13.0384 4.94128L13.0462 4.95004C13.1889 5.05504 13.3193 5.17747 13.4348 5.31747C13.6623 5.58872 13.8294 5.91253 13.9204 6.25378C13.9729 6.45503 13.9991 6.665 14 6.875V9.5H13.125V11.25H10.5V9.5H3.5V11.25H0.875V9.5H0V6.875C0 6.09625 0.367499 5.38753 0.961624 4.94128C0.796249 4.85378 0.643986 4.74868 0.510986 4.61743C0.183736 4.28493 0 3.83876 0 3.38376V3.375H1.75C1.78588 3.375 1.82087 3.37501 1.855 3.38376ZM13.125 6H11.9193C11.543 6 11.1816 6.14872 10.9156 6.41122C10.6496 6.68247 10.5 7.04135 10.5 7.4176V7.75H11.375C12.3375 7.75 13.1189 6.97126 13.125 6.00876V6ZM2.08074 6H0.875C0.875 6.97125 1.65811 7.75 2.62324 7.75C3.10624 7.75 3.5 7.75 3.5 7.75V7.4176C3.5 7.04135 3.3504 6.68247 3.0844 6.41122C2.8184 6.14872 2.45699 6 2.08074 6ZM5.54576 2.5C4.66814 2.5 3.87887 3.03378 3.5525 3.84753L3.39239 4.25H10.6076L10.4475 3.84753C10.3723 3.66378 10.2708 3.4887 10.1465 3.32245C10.0065 3.14745 9.83851 2.98993 9.64951 2.86743C9.46314 2.73618 9.25749 2.64008 9.04224 2.57883C8.85061 2.52633 8.65286 2.5 8.45424 2.5H5.54576Z" fill="#85858A"/>
</svg>
