<svg width="16" height="16" viewBox="0 0 16 16" fill="none" xmlns="http://www.w3.org/2000/svg">
<mask id="mask0_967_1615" style="mask-type:alpha" maskUnits="userSpaceOnUse" x="1" y="2" width="14" height="12">
<path fill-rule="evenodd" clip-rule="evenodd" d="M1.97249 6.82969C1.64952 6.65287 1.33228 6.36816 1.33433 5.99998C1.3424 4.54999 1.40671 3.76473 1.91896 3.25247C2.50474 2.66669 3.44756 2.66669 5.33318 2.66669H10.6665C12.5521 2.66669 13.4949 2.66669 14.0807 3.25247C14.593 3.76473 14.6572 4.55 14.6653 6.00001C14.6674 6.36819 14.3502 6.65289 14.0272 6.82969C13.6136 7.05609 13.3332 7.49529 13.3332 8.00002C13.3332 8.50475 13.6136 8.94395 14.0272 9.17035C14.3502 9.34715 14.6674 9.63189 14.6653 10C14.6572 11.45 14.593 12.2353 14.0807 12.7476C13.4949 13.3334 12.5521 13.3334 10.6665 13.3334H5.33318C3.44756 13.3334 2.50474 13.3334 1.91896 12.7476C1.40671 12.2353 1.3424 11.45 1.33433 10.0001C1.33228 9.63189 1.64952 9.34715 1.97249 9.17035C2.38606 8.94395 2.66651 8.50475 2.66651 8.00002C2.66651 7.49529 2.38606 7.05609 1.97249 6.82969Z" fill="white"/>
</mask>
<g mask="url(#mask0_967_1615)">
<path d="M14.0807 12.7476L14.7878 13.4547L14.0807 12.7476ZM1.91896 12.7476L1.21185 13.4547H1.21185L1.91896 12.7476ZM14.0272 9.17036L14.5074 8.29323L14.0272 9.17036ZM14.6653 10L13.6654 9.99449L14.6653 10ZM14.6653 6.00002L13.6654 6.00558L14.6653 6.00002ZM14.0272 6.82969L14.5074 7.70682L14.0272 6.82969ZM1.33433 5.99998L0.334346 5.99442L1.33433 5.99998ZM1.97249 6.82969L1.49231 7.70682L1.97249 6.82969ZM1.21185 2.54537C0.768075 2.98915 0.558562 3.52486 0.454033 4.09391C0.354754 4.63439 0.338338 5.2774 0.334346 5.99442L2.33431 6.00555C2.33839 5.27258 2.35817 4.79796 2.42112 4.45524C2.47883 4.1411 2.55759 4.02806 2.62607 3.95959L1.21185 2.54537ZM5.33317 1.66669C4.41863 1.66669 3.63213 1.66457 3.00538 1.74883C2.34986 1.83697 1.72151 2.03571 1.21185 2.54537L2.62607 3.95959C2.70219 3.88346 2.83813 3.78931 3.27187 3.731C3.73438 3.66882 4.36209 3.66669 5.33317 3.66669V1.66669ZM10.6665 1.66669H5.33317V3.66669H10.6665V1.66669ZM14.7878 2.54537C14.2782 2.03571 13.6498 1.83697 12.9943 1.74883C12.3675 1.66457 11.581 1.66669 10.6665 1.66669V3.66669C11.6376 3.66669 12.2653 3.66882 12.7278 3.731C13.1615 3.78931 13.2975 3.88346 13.3736 3.95959L14.7878 2.54537ZM15.6653 5.99445C15.6613 5.27743 15.6449 4.63441 15.5456 4.09393C15.4411 3.52487 15.2316 2.98915 14.7878 2.54537L13.3736 3.95959C13.4421 4.02807 13.5208 4.14111 13.5786 4.45525C13.6415 4.79798 13.6613 5.2726 13.6654 6.00558L15.6653 5.99445ZM14.3332 8.00003C14.3332 7.87523 14.4014 7.76482 14.5074 7.70682L13.547 5.95253C12.8258 6.34732 12.3332 7.11543 12.3332 8.00003H14.3332ZM14.5074 8.29323C14.4014 8.23523 14.3332 8.12483 14.3332 8.00003H12.3332C12.3332 8.88462 12.8258 9.65276 13.547 10.0475L14.5074 8.29323ZM14.7878 13.4547C15.2316 13.0109 15.4411 12.4752 15.5456 11.9061C15.6449 11.3656 15.6613 10.7226 15.6653 10.0056L13.6654 9.99449C13.6613 10.7274 13.6415 11.2021 13.5786 11.5448C13.5208 11.859 13.4421 11.972 13.3736 12.0405L14.7878 13.4547ZM10.6665 14.3334C11.581 14.3334 12.3675 14.3355 12.9943 14.2512C13.6498 14.1631 14.2782 13.9644 14.7878 13.4547L13.3736 12.0405C13.2975 12.1166 13.1615 12.2108 12.7278 12.269C12.2653 12.3312 11.6376 12.3334 10.6665 12.3334V14.3334ZM5.33317 14.3334H10.6665V12.3334H5.33317V14.3334ZM1.21185 13.4547C1.72151 13.9644 2.34986 14.1631 3.00538 14.2512C3.63213 14.3355 4.41863 14.3334 5.33317 14.3334V12.3334C4.36209 12.3334 3.73438 12.3312 3.27187 12.269C2.83813 12.2108 2.70219 12.1166 2.62607 12.0405L1.21185 13.4547ZM0.334346 10.0056C0.338338 10.7226 0.354754 11.3657 0.454033 11.9062C0.558563 12.4752 0.768075 13.0109 1.21185 13.4547L2.62607 12.0405C2.55759 11.972 2.47883 11.859 2.42112 11.5448C2.35817 11.2021 2.33839 10.7275 2.33431 9.99449L0.334346 10.0056ZM1.66651 8.00003C1.66651 8.12489 1.59827 8.23523 1.49231 8.29323L2.45267 10.0476C3.17384 9.65276 3.66651 8.88462 3.66651 8.00003H1.66651ZM1.49231 7.70682C1.59827 7.76482 1.66651 7.87516 1.66651 8.00003H3.66651C3.66651 7.11543 3.17384 6.34729 2.45267 5.95251L1.49231 7.70682ZM2.33431 9.99449C2.33463 10.0506 2.32203 10.0983 2.30819 10.1309C2.29553 10.1607 2.28489 10.1711 2.29071 10.1643C2.29659 10.1575 2.3125 10.141 2.34273 10.1179C2.37247 10.0952 2.40964 10.0711 2.45267 10.0476L1.49231 8.29323C1.26327 8.41856 0.994501 8.60343 0.772341 8.86256C0.54572 9.12689 0.331611 9.51449 0.334346 10.0056L2.33431 9.99449ZM13.547 10.0475C13.59 10.0711 13.6272 10.0952 13.657 10.1179C13.6872 10.141 13.7031 10.1574 13.709 10.1643C13.7148 10.1711 13.7041 10.1606 13.6915 10.1308C13.6776 10.0982 13.665 10.0506 13.6654 9.99449L15.6653 10.0056C15.668 9.51442 15.454 9.12689 15.2274 8.86256C15.0052 8.60343 14.7364 8.41856 14.5074 8.29323L13.547 10.0475ZM13.6654 6.00558C13.665 5.94943 13.6776 5.9018 13.6915 5.86921C13.7041 5.8394 13.7148 5.82897 13.709 5.83576C13.7031 5.84261 13.6872 5.85911 13.657 5.88216C13.6272 5.90485 13.59 5.92898 13.547 5.95253L14.5074 7.70682C14.7364 7.58149 15.0052 7.39663 15.2274 7.13749C15.454 6.87316 15.668 6.4856 15.6653 5.99445L13.6654 6.00558ZM0.334346 5.99442C0.331611 6.48558 0.54572 6.87316 0.772341 7.13749C0.994495 7.39663 1.26327 7.58149 1.49231 7.70682L2.45267 5.95251C2.40964 5.92895 2.37247 5.90482 2.34273 5.88213C2.3125 5.85908 2.29659 5.84258 2.29071 5.83573C2.28489 5.82893 2.29553 5.83937 2.30819 5.86917C2.32203 5.90177 2.33463 5.9494 2.33431 6.00555L0.334346 5.99442Z" fill="#85858A"/>
<path d="M6.5 3.83331V5.49998" stroke="#85858A" stroke-linecap="round"/>
<path d="M6.5 7.83331V8.83331" stroke="#85858A" stroke-linecap="round"/>
<path d="M6.5 11.1667V12.1667" stroke="#85858A" stroke-linecap="round"/>
</g>
</svg>
