<svg width="16" height="16" viewBox="0 0 16 16" fill="none" xmlns="http://www.w3.org/2000/svg">
<path d="M12.0588 6.16694C12.3351 5.85833 12.3089 5.38418 12.0003 5.10789C11.6917 4.8316 11.2175 4.85779 10.9412 5.1664L12.0588 6.16694ZM9.25388 8.17545L8.69511 7.67518L9.25388 8.17545ZM5.41278 8.17545L5.97155 7.67518L5.97155 7.67518L5.41278 8.17545ZM5.39211 7.02797C5.11582 6.71937 4.64166 6.69317 4.33306 6.96947C4.02446 7.24576 3.99827 7.71991 4.27456 8.02851L5.39211 7.02797ZM14.0833 7.66667C14.0833 10.9344 11.4344 13.5833 8.16667 13.5833V15.0833C12.2628 15.0833 15.5833 11.7628 15.5833 7.66667H14.0833ZM8.16667 13.5833C4.89898 13.5833 2.25 10.9344 2.25 7.66667H0.75C0.75 11.7628 4.07055 15.0833 8.16667 15.0833V13.5833ZM2.25 7.66667C2.25 4.39898 4.89898 1.75 8.16667 1.75V0.25C4.07055 0.25 0.75 3.57055 0.75 7.66667H2.25ZM8.16667 1.75C11.4344 1.75 14.0833 4.39898 14.0833 7.66667H15.5833C15.5833 3.57055 12.2628 0.25 8.16667 0.25V1.75ZM10.9412 5.1664L8.69511 7.67518L9.81266 8.67572L12.0588 6.16694L10.9412 5.1664ZM5.97155 7.67518L5.39211 7.02797L4.27456 8.02851L4.85401 8.67572L5.97155 7.67518ZM8.69511 7.67518C8.23492 8.18918 7.94205 8.51361 7.69682 8.71973C7.47022 8.91019 7.37909 8.91667 7.33333 8.91667V10.4167C7.87304 10.4167 8.29716 10.1746 8.66195 9.868C9.00812 9.57705 9.38279 9.15586 9.81266 8.67572L8.69511 7.67518ZM4.85401 8.67572C5.28388 9.15586 5.65855 9.57704 6.00471 9.868C6.3695 10.1746 6.79363 10.4167 7.33333 10.4167V8.91667C7.28757 8.91667 7.19645 8.91019 6.96984 8.71973C6.72461 8.51361 6.43174 8.18918 5.97155 7.67518L4.85401 8.67572Z" fill="#85858A"/>
</svg>
