<svg width="14" height="14" viewBox="0 0 14 14" fill="none" xmlns="http://www.w3.org/2000/svg">
<path d="M11.8119 4.95896L11.7337 5.45281L11.8119 4.95896ZM9.04104 2.18812L8.5472 2.26633L9.04104 2.18812ZM2.37405 12.3634L2.66794 11.9589L2.37405 12.3634ZM1.63661 11.626L2.04112 11.3321L1.63661 11.626ZM12.3634 11.626L11.9589 11.3321L12.3634 11.626ZM11.626 12.3634L11.3321 11.9589L11.626 12.3634ZM11.626 1.63661L11.9198 1.2321L11.626 1.63661ZM12.3634 2.37405L12.7679 2.08016L12.3634 2.37405ZM2.37405 1.63661L2.66794 2.04112L2.37405 1.63661ZM1.63661 2.37405L2.04112 2.66794L1.63661 2.37405ZM9 1.01929L9.01712 0.519579L9 1.01929ZM12.9807 5L13.4804 4.98288L12.9807 5ZM6.83333 5C6.83333 4.72386 6.60948 4.5 6.33333 4.5C6.05719 4.5 5.83333 4.72386 5.83333 5H6.83333ZM9.35513 8.55197C9.54952 8.35584 9.5481 8.03926 9.35197 7.84487C9.15584 7.65048 8.83926 7.6519 8.64487 7.84803L9.35513 8.55197ZM8.0681 9.14025L8.42323 9.49222L8.0681 9.14025ZM4.59856 9.14025L4.95369 8.78828L4.59856 9.14025ZM4.02179 7.84803C3.8274 7.6519 3.51083 7.65048 3.31469 7.84487C3.11856 8.03926 3.11715 8.35584 3.31154 8.55197L4.02179 7.84803ZM6.50044 10.3227L6.56366 10.8187H6.56366L6.50044 10.3227ZM6.16622 10.3227L6.103 10.8187H6.103L6.16622 10.3227ZM6.33333 10.3333V10.8333V10.3333ZM11.8901 4.46512C10.6777 4.2731 9.7269 3.32226 9.53488 2.1099L8.5472 2.26633C8.80699 3.90659 10.0934 5.19301 11.7337 5.45281L11.8901 4.46512ZM7 12.5C5.73895 12.5 4.83333 12.4993 4.13203 12.4233C3.44009 12.3484 3.00661 12.2049 2.66794 11.9589L2.08016 12.7679C2.61771 13.1585 3.24729 13.3333 4.02432 13.4175C4.79198 13.5007 5.76123 13.5 7 13.5V12.5ZM0.5 7C0.5 8.23877 0.499314 9.20802 0.582485 9.97568C0.666671 10.7527 0.841549 11.3823 1.2321 11.9198L2.04112 11.3321C1.79506 10.9934 1.65163 10.5599 1.57667 9.86797C1.50069 9.16667 1.5 8.26105 1.5 7H0.5ZM2.66794 11.9589C2.42741 11.7841 2.21588 11.5726 2.04112 11.3321L1.2321 11.9198C1.46854 12.2453 1.75473 12.5315 2.08016 12.7679L2.66794 11.9589ZM12.5 7C12.5 8.26105 12.4993 9.16667 12.4233 9.86797C12.3484 10.5599 12.2049 10.9934 11.9589 11.3321L12.7679 11.9198C13.1585 11.3823 13.3333 10.7527 13.4175 9.97568C13.5007 9.20802 13.5 8.23877 13.5 7H12.5ZM7 13.5C8.23877 13.5 9.20802 13.5007 9.97568 13.4175C10.7527 13.3333 11.3823 13.1585 11.9198 12.7679L11.3321 11.9589C10.9934 12.2049 10.5599 12.3484 9.86797 12.4233C9.16667 12.4993 8.26105 12.5 7 12.5V13.5ZM11.9589 11.3321C11.7841 11.5726 11.5726 11.7841 11.3321 11.9589L11.9198 12.7679C12.2453 12.5315 12.5315 12.2453 12.7679 11.9198L11.9589 11.3321ZM11.3321 2.04112C11.5726 2.21588 11.7841 2.42741 11.9589 2.66794L12.7679 2.08016C12.5315 1.75473 12.2453 1.46854 11.9198 1.2321L11.3321 2.04112ZM7 0.5C5.76123 0.5 4.79198 0.499314 4.02432 0.582485C3.24729 0.666671 2.61771 0.841549 2.08016 1.2321L2.66794 2.04112C3.00661 1.79506 3.44009 1.65163 4.13203 1.57667C4.83333 1.50069 5.73895 1.5 7 1.5V0.5ZM1.5 7C1.5 5.73895 1.50069 4.83333 1.57667 4.13203C1.65163 3.44009 1.79506 3.00661 2.04112 2.66794L1.2321 2.08016C0.841549 2.61771 0.666671 3.24729 0.582485 4.02432C0.499314 4.79198 0.5 5.76123 0.5 7H1.5ZM2.08016 1.2321C1.75473 1.46854 1.46854 1.75473 1.2321 2.08016L2.04112 2.66794C2.21588 2.42741 2.42741 2.21588 2.66794 2.04112L2.08016 1.2321ZM7 1.5C7.78205 1.5 8.43037 1.50006 8.98288 1.51899L9.01712 0.519579C8.44384 0.499937 7.77652 0.5 7 0.5V1.5ZM8.98288 1.51899C10.2195 1.56136 10.8617 1.69938 11.3321 2.04112L11.9198 1.2321C11.1841 0.697531 10.2661 0.56237 9.01712 0.519579L8.98288 1.51899ZM8.5 1.01929C8.5 1.60747 8.4989 1.96143 8.5472 2.26633L9.53488 2.1099C9.50195 1.90199 9.5 1.64412 9.5 1.01928L8.5 1.01929ZM13.5 7C13.5 6.22348 13.5001 5.55616 13.4804 4.98288L12.481 5.01712C12.4999 5.56963 12.5 6.21795 12.5 7H13.5ZM13.4804 4.98288C13.4376 3.73392 13.3025 2.81593 12.7679 2.08016L11.9589 2.66794C12.3006 3.13831 12.4386 3.7805 12.481 5.01712L13.4804 4.98288ZM12.9807 4.5C12.3559 4.5 12.098 4.49805 11.8901 4.46512L11.7337 5.45281C12.0386 5.5011 12.3925 5.5 12.9807 5.5L12.9807 4.5ZM5.83333 5V9.8H6.83333V5H5.83333ZM8.64487 7.84803L7.71298 8.78828L8.42323 9.49222L9.35513 8.55197L8.64487 7.84803ZM4.95369 8.78828L4.02179 7.84803L3.31154 8.55197L4.24344 9.49222L4.95369 8.78828ZM7.71298 8.78828C7.33311 9.17155 7.07743 9.42845 6.86234 9.60118C6.65515 9.76758 6.53466 9.81432 6.43722 9.82674L6.56366 10.8187C6.91913 10.7734 7.21089 10.6038 7.4885 10.3809C7.75823 10.1643 8.05992 9.85879 8.42323 9.49222L7.71298 8.78828ZM4.24344 9.49222C4.60674 9.85879 4.90843 10.1643 5.17816 10.3809C5.45578 10.6038 5.74754 10.7734 6.103 10.8187L6.22944 9.82674C6.132 9.81432 6.01152 9.76758 5.80433 9.60118C5.58924 9.42845 5.33355 9.17154 4.95369 8.78828L4.24344 9.49222ZM6.43723 9.82674C6.40273 9.83114 6.36803 9.83333 6.33333 9.83333V10.8333C6.41026 10.8333 6.48719 10.8285 6.56366 10.8187L6.43723 9.82674ZM6.33333 9.83333C6.29864 9.83333 6.26394 9.83114 6.22944 9.82674L6.103 10.8187C6.17947 10.8285 6.2564 10.8333 6.33333 10.8333V9.83333ZM5.83333 9.8V10.3333H6.83333V9.8H5.83333Z" fill="#85858A"/>
</svg>
