<svg width="17" height="16" viewBox="0 0 17 16" fill="none" xmlns="http://www.w3.org/2000/svg">
<path fill-rule="evenodd" clip-rule="evenodd" d="M9.05551 3.50241C9.05551 3.71719 8.88139 3.8913 8.66662 3.8913C8.45184 3.8913 8.27773 3.71719 8.27773 3.50241C8.27773 3.28764 8.45184 3.11353 8.66662 3.11353C8.88139 3.11353 9.05551 3.28764 9.05551 3.50241ZM9.92638 4.08801C10.0092 3.91006 10.0555 3.71164 10.0555 3.50241C10.0555 2.73535 9.43368 2.11353 8.66662 2.11353C7.89955 2.11353 7.27773 2.73535 7.27773 3.50241C7.27773 3.71166 7.324 3.9101 7.40687 4.08805C6.03373 4.26578 4.90747 4.76102 4.08065 5.65674C3.02128 6.80439 2.5418 8.51539 2.5418 10.7615L2.54192 10.7726C1.76725 10.8651 1.16666 11.5244 1.16666 12.324C1.16666 13.187 1.86621 13.8865 2.72916 13.8865L14.6042 13.8865C15.4671 13.8865 16.1667 13.187 16.1667 12.324C16.1667 11.5245 15.5662 10.8653 14.7917 10.7727L14.7918 10.7615C14.7918 8.51539 14.3123 6.80439 13.2529 5.65674C12.4261 4.76094 11.2997 4.2657 9.92638 4.08801ZM13.7918 10.7615V10.7615H3.5418V10.7615C3.5418 8.63262 3.99981 7.21863 4.81545 6.33502C5.62306 5.46011 6.86916 5.01151 8.6668 5.01151C10.4644 5.01151 11.7105 5.46011 12.5181 6.33502C13.3338 7.21863 13.7918 8.63262 13.7918 10.7615ZM2.72916 11.7615H14.6042C14.9148 11.7615 15.1667 12.0134 15.1667 12.324C15.1667 12.6347 14.9148 12.8865 14.6042 12.8865L2.72916 12.8865C2.4185 12.8865 2.16666 12.6347 2.16666 12.324C2.16666 12.0134 2.4185 11.7615 2.72916 11.7615Z" fill="#FFB600"/>
</svg>
