<svg width="24" height="25" viewBox="0 0 24 25" fill="none" xmlns="http://www.w3.org/2000/svg">
<mask id="mask0_448_1453" style="mask-type:alpha" maskUnits="userSpaceOnUse" x="2" y="4" width="20" height="17">
<path fill-rule="evenodd" clip-rule="evenodd" d="M2.95872 10.7445C2.47427 10.4793 1.99841 10.0522 2.00148 9.49994C2.01359 7.32495 2.11005 6.14706 2.87843 5.37868C3.7571 4.5 5.17132 4.5 7.99975 4.5H15.9998C18.8282 4.5 20.2424 4.5 21.1211 5.37868C21.8895 6.14706 21.9859 7.32497 21.998 9.49999C22.0011 10.0523 21.5253 10.4793 21.0409 10.7445C20.4205 11.0841 19.9999 11.7429 19.9999 12.5C19.9999 13.2571 20.4205 13.9159 21.0409 14.2555C21.5253 14.5207 22.0011 14.9478 21.998 15.5C21.9859 17.675 21.8895 18.8529 21.1211 19.6213C20.2424 20.5 18.8282 20.5 15.9998 20.5H7.99975C5.17132 20.5 3.7571 20.5 2.87843 19.6213C2.11005 18.8529 2.01359 17.675 2.00148 15.5001C1.99841 14.9478 2.47427 14.5207 2.95872 14.2555C3.57907 13.9159 3.99975 13.2571 3.99975 12.5C3.99975 11.7429 3.57907 11.0841 2.95872 10.7445Z" fill="white"/>
</mask>
<g mask="url(#mask0_448_1453)">
<path d="M21.1211 19.6213L22.1818 20.682L21.1211 19.6213ZM2.87843 19.6213L1.81776 20.682H1.81777L2.87843 19.6213ZM21.0409 14.2555L21.7612 12.9398L21.0409 14.2555ZM21.998 15.5L20.4981 15.4917L21.998 15.5ZM21.998 9.5L20.4981 9.50835L21.998 9.5ZM21.0409 10.7445L21.7612 12.0602L21.0409 10.7445ZM2.00148 9.49995L0.501504 9.4916L2.00148 9.49995ZM2.95872 10.7445L2.23845 12.0602L2.95872 10.7445ZM1.81777 4.31803C1.1521 4.98369 0.837828 5.78726 0.681034 6.64084C0.532116 7.45155 0.507492 8.41607 0.501504 9.4916L3.50146 9.5083C3.50758 8.40884 3.53724 7.69692 3.63167 7.18284C3.71823 6.71163 3.83637 6.54206 3.93909 6.43935L1.81777 4.31803ZM7.99975 3.00001C6.62794 3.00001 5.44818 2.99682 4.50806 3.12322C3.52478 3.25542 2.58226 3.55354 1.81777 4.31803L3.93909 6.43935C4.05327 6.32516 4.25719 6.18394 4.9078 6.09647C5.60156 6.0032 6.54313 6.00001 7.99975 6.00001V3.00001ZM15.9998 3.00001H7.99975V6.00001H15.9998V3.00001ZM22.1818 4.31803C21.4173 3.55354 20.4747 3.25542 19.4915 3.12322C18.5513 2.99682 17.3716 3.00001 15.9998 3.00001V6.00001C17.4564 6.00001 18.398 6.0032 19.0917 6.09647C19.7423 6.18394 19.9463 6.32516 20.0604 6.43935L22.1818 4.31803ZM23.498 9.49165C23.492 8.41611 23.4674 7.45158 23.3185 6.64086C23.1617 5.78727 22.8474 4.9837 22.1818 4.31803L20.0604 6.43935C20.1632 6.54207 20.2813 6.71164 20.3679 7.18285C20.4623 7.69694 20.492 8.40887 20.4981 9.50835L23.498 9.49165ZM21.4999 12.5C21.4999 12.3128 21.6022 12.1472 21.7612 12.0602L20.3206 9.42877C19.2388 10.021 18.4999 11.1731 18.4999 12.5H21.4999ZM21.7612 12.9398C21.6022 12.8528 21.4999 12.6872 21.4999 12.5H18.4999C18.4999 13.8269 19.2388 14.9791 20.3206 15.5712L21.7612 12.9398ZM22.1818 20.682C22.8474 20.0163 23.1617 19.2127 23.3185 18.3591C23.4674 17.5484 23.492 16.5839 23.498 15.5084L20.4981 15.4917C20.492 16.5911 20.4623 17.3031 20.3679 17.8172C20.2813 18.2884 20.1632 18.4579 20.0604 18.5607L22.1818 20.682ZM15.9998 22C17.3716 22 18.5513 22.0032 19.4915 21.8768C20.4747 21.7446 21.4173 21.4465 22.1818 20.682L20.0604 18.5607C19.9463 18.6748 19.7423 18.8161 19.0917 18.9035C18.398 18.9968 17.4564 19 15.9998 19V22ZM7.99975 22H15.9998V19H7.99975V22ZM1.81777 20.682C2.58226 21.4465 3.52478 21.7446 4.50806 21.8768C5.44818 22.0032 6.62794 22 7.99975 22V19C6.54313 19 5.60156 18.9968 4.9078 18.9035C4.25719 18.8161 4.05327 18.6748 3.93909 18.5607L1.81777 20.682ZM0.501504 15.5084C0.507492 16.5839 0.532116 17.5485 0.681034 18.3592C0.837829 19.2128 1.1521 20.0163 1.81776 20.682L3.93909 18.5607C3.83637 18.4579 3.71823 18.2884 3.63167 17.8172C3.53724 17.3031 3.50758 16.5912 3.50146 15.4917L0.501504 15.5084ZM2.49975 12.5C2.49975 12.6873 2.3974 12.8528 2.23845 12.9398L3.67899 15.5713C4.76075 14.9791 5.49975 13.8269 5.49975 12.5H2.49975ZM2.23845 12.0602C2.3974 12.1472 2.49975 12.3127 2.49975 12.5H5.49975C5.49975 11.1731 4.76075 10.0209 3.67899 9.42873L2.23845 12.0602ZM3.50146 15.4917C3.50193 15.5759 3.48304 15.6474 3.46227 15.6963C3.44328 15.741 3.42733 15.7566 3.43606 15.7464C3.44487 15.7362 3.46874 15.7114 3.51408 15.6768C3.55869 15.6428 3.61445 15.6066 3.67899 15.5713L2.23845 12.9398C1.89489 13.1278 1.49174 13.4051 1.1585 13.7938C0.818565 14.1903 0.497402 14.7717 0.501504 15.5084L3.50146 15.4917ZM20.3206 15.5712C20.3851 15.6066 20.4409 15.6428 20.4855 15.6768C20.5308 15.7114 20.5547 15.7361 20.5635 15.7464C20.5722 15.7566 20.5562 15.7409 20.5373 15.6962C20.5165 15.6473 20.4976 15.5759 20.4981 15.4917L23.498 15.5084C23.5021 14.7716 23.181 14.1903 22.8411 13.7938C22.5079 13.4051 22.1047 13.1278 21.7612 12.9398L20.3206 15.5712ZM20.4981 9.50835C20.4976 9.42412 20.5165 9.35268 20.5373 9.30379C20.5562 9.25908 20.5722 9.24343 20.5635 9.25362C20.5547 9.26389 20.5308 9.28864 20.4855 9.32322C20.4409 9.35725 20.3851 9.39344 20.3206 9.42877L21.7612 12.0602C22.1047 11.8722 22.5079 11.5949 22.8411 11.2062C23.181 10.8097 23.5021 10.2284 23.498 9.49165L20.4981 9.50835ZM0.501504 9.4916C0.497402 10.2283 0.818565 10.8097 1.1585 11.2062C1.49173 11.5949 1.89489 11.8722 2.23845 12.0602L3.67899 9.42873C3.61445 9.3934 3.55869 9.3572 3.51408 9.32317C3.46874 9.28859 3.44487 9.26384 3.43606 9.25357C3.42733 9.24337 3.44328 9.25903 3.46227 9.30373C3.48304 9.35263 3.50193 9.42407 3.50146 9.5083L0.501504 9.4916Z" fill="#FFB600"/>
<path d="M9.75 6.25V8.75" stroke="#FFB600" stroke-width="1.5" stroke-linecap="round"/>
<path d="M9.75 12.25V13.75" stroke="#FFB600" stroke-width="1.5" stroke-linecap="round"/>
<path d="M9.75 17.25V18.75" stroke="#FFB600" stroke-width="1.5" stroke-linecap="round"/>
</g>
</svg>
