<svg width="21" height="19" viewBox="0 0 21 19" fill="none" xmlns="http://www.w3.org/2000/svg">
<path fill-rule="evenodd" clip-rule="evenodd" d="M5.694 2.33146C6.09595 1.60093 6.53322 1.11258 7.18207 0.854329C8.37107 0.381549 12.6295 0.381549 13.8175 0.854424C14.466 1.11254 14.9035 1.6008 15.3057 2.33118L15.7579 3.19833C15.7683 3.21551 15.7778 3.23062 15.7863 3.24362L15.8247 3.29613C16.0308 3.52063 16.3756 3.65626 16.6032 3.65626C18.7552 3.65626 20.5002 5.40085 20.5002 7.55226V13.3473C20.5002 16.0915 18.2744 18.3173 15.5302 18.3173H5.47018C2.72529 18.3173 0.500183 16.0918 0.500183 13.3473V7.55226C0.500183 5.40085 2.24516 3.65626 4.39718 3.65626C4.62396 3.65626 4.96926 3.52043 5.17562 3.29613C5.17975 3.29164 5.18513 3.28495 5.19163 3.27609L5.24306 3.19721L5.694 2.33146ZM13.9918 3.05484C13.7419 2.601 13.516 2.34885 13.2628 2.24809L13.1435 2.20842C12.1144 1.91754 8.53459 1.93076 7.73654 2.24809C7.48352 2.34879 7.25787 2.60081 7.0082 3.05456L6.62334 3.79866L6.52861 3.97009C6.44954 4.10161 6.37045 4.21264 6.28013 4.31105C5.77367 4.86155 5.02443 5.15626 4.39718 5.15626L4.23309 5.16179C2.98593 5.24611 2.00018 6.28447 2.00018 7.55226V13.3473C2.00018 15.2634 3.55377 16.8173 5.47018 16.8173H15.5302C17.446 16.8173 19.0002 15.263 19.0002 13.3473V7.55226C19.0002 6.22935 17.9269 5.15626 16.6032 5.15626L16.4291 5.14898C15.8405 5.10055 15.1795 4.81142 14.7196 4.31038C14.6305 4.21328 14.5518 4.10304 14.4732 3.97263C14.462 3.95392 14.4479 3.92929 14.4318 3.90014L14.3157 3.6824L13.9918 3.05484Z" fill="#85858A"/>
<path d="M16.0045 6C16.5568 6 17.0045 6.44772 17.0045 7C17.0045 7.51284 16.6184 7.93551 16.1211 7.99327L16.0045 8C15.4432 8 14.9955 7.55228 14.9955 7C14.9955 6.48716 15.3815 6.06449 15.8789 6.00673L16.0045 6Z" fill="#85858A"/>
<path fill-rule="evenodd" clip-rule="evenodd" d="M6.57086 10.628C6.57086 8.45776 8.32965 6.69897 10.4999 6.69897C12.6701 6.69897 14.4289 8.45776 14.4289 10.628C14.4289 12.7982 12.6701 14.557 10.4999 14.557C8.32965 14.557 6.57086 12.7982 6.57086 10.628ZM12.9289 10.628C12.9289 9.28619 11.8416 8.19897 10.4999 8.19897C9.15808 8.19897 8.07086 9.28619 8.07086 10.628C8.07086 11.9698 9.15808 13.057 10.4999 13.057C11.8416 13.057 12.9289 11.9698 12.9289 10.628Z" fill="#85858A"/>
</svg>
