<svg width="18" height="15" viewBox="0 0 18 15" fill="none" xmlns="http://www.w3.org/2000/svg">
<path fill-rule="evenodd" clip-rule="evenodd" d="M2.38499 4.13626L2.47838 3.90005C3.23888 1.9988 5.08164 0.75 7.13026 0.75H10.8697C12.9184 0.75 14.7611 1.9988 15.5216 3.90005L15.615 4.13626H15.6206C15.6634 4.12501 15.7072 4.125 15.75 4.125H18V4.13626C18 4.72126 17.7638 5.29491 17.343 5.72241C17.172 5.89116 16.9763 6.02629 16.7636 6.13879L16.7737 6.15005C16.9571 6.28505 17.1248 6.44247 17.2733 6.62247C17.5658 6.97122 17.7806 7.38754 17.8976 7.82629C17.9651 8.08504 17.9989 8.355 18 8.625V12H16.875V14.25H13.5V12H4.5V14.25H1.125V12H0V8.625C0 7.62375 0.472499 6.71254 1.23637 6.13879C1.02375 6.02629 0.827982 5.89116 0.656982 5.72241C0.236232 5.29491 0 4.72126 0 4.13626V4.125H2.25C2.29613 4.125 2.34112 4.12501 2.38499 4.13626ZM16.875 7.5H15.3248C14.841 7.5 14.3763 7.69122 14.0343 8.02872C13.6923 8.37747 13.5 8.83888 13.5 9.32263V9.75H14.625C15.8625 9.75 16.8671 8.74876 16.875 7.51126V7.5ZM2.67524 7.5H1.125C1.125 8.74875 2.13186 9.75 3.37273 9.75C3.99373 9.75 4.5 9.75 4.5 9.75V9.32263C4.5 8.83888 4.30765 8.37747 3.96565 8.02872C3.62365 7.69122 3.15899 7.5 2.67524 7.5ZM7.13026 3C6.00189 3 4.98712 3.68629 4.5675 4.73254L4.36164 5.25H13.6384L13.4325 4.73254C13.3358 4.49629 13.2053 4.27118 13.0455 4.05743C12.8655 3.83243 12.6495 3.62991 12.4065 3.47241C12.1669 3.30366 11.9025 3.1801 11.6257 3.10135C11.3794 3.03385 11.1251 3 10.8697 3H7.13026Z" fill="#3EB6E4"/>
</svg>
