<svg width="32" height="33" viewBox="0 0 32 33" fill="none" xmlns="http://www.w3.org/2000/svg">
<mask id="mask0_448_3151" style="mask-type:alpha" maskUnits="userSpaceOnUse" x="2" y="5" width="28" height="23">
<path fill-rule="evenodd" clip-rule="evenodd" d="M3.94495 14.1593C3.29902 13.8056 2.66454 13.2362 2.66863 12.4998C2.68478 9.59985 2.81339 8.02933 3.8379 7.00483C5.00946 5.83325 6.89508 5.83325 10.6663 5.83325H21.333C25.1042 5.83325 26.9898 5.83325 28.1614 7.00483C29.1859 8.02933 29.3145 9.59988 29.3306 12.4999C29.3347 13.2363 28.7003 13.8057 28.0545 14.1593C27.2273 14.6121 26.6665 15.4905 26.6665 16.4999C26.6665 17.5094 27.2273 18.3878 28.0545 18.8406C28.7003 19.1942 29.3347 19.7637 29.3306 20.4999C29.3145 23.3999 29.1859 24.9705 28.1614 25.995C26.9898 27.1666 25.1042 27.1666 21.333 27.1666H10.6663C6.89508 27.1666 5.00946 27.1666 3.8379 25.995C2.81339 24.9705 2.68478 23.3999 2.66863 20.5001C2.66454 19.7637 3.29902 19.1942 3.94495 18.8406C4.77208 18.3878 5.33299 17.5094 5.33299 16.4999C5.33299 15.4905 4.77208 14.6121 3.94495 14.1593Z" fill="white"/>
</mask>
<g mask="url(#mask0_448_3151)">
<path d="M28.1614 25.995L29.5757 27.4093L28.1614 25.995ZM3.83789 25.995L2.42367 27.4093H2.42368L3.83789 25.995ZM28.0545 18.8406L29.0149 17.0863L28.0545 18.8406ZM29.3306 20.4999L27.3307 20.4889L29.3306 20.4999ZM29.3306 12.4999L27.3307 12.511L29.3306 12.4999ZM28.0545 14.1593L29.0149 15.9135L28.0545 14.1593ZM2.66863 12.4998L0.668661 12.4887L2.66863 12.4998ZM3.94495 14.1593L2.98459 15.9135L3.94495 14.1593ZM2.42368 5.59062C1.53612 6.47817 1.11709 7.54959 0.908035 8.6877C0.709477 9.76865 0.676645 11.0547 0.668661 12.4887L4.6686 12.511C4.67676 11.045 4.71631 10.0958 4.84221 9.41037C4.95763 8.78209 5.11515 8.55599 5.25211 8.41905L2.42368 5.59062ZM10.6663 3.83326C8.83724 3.83326 7.26423 3.82901 6.01073 3.99754C4.69969 4.17381 3.443 4.5713 2.42368 5.59062L5.25211 8.41905C5.40435 8.2668 5.67624 8.0785 6.54372 7.96187C7.46873 7.83751 8.72416 7.83326 10.6663 7.83326V3.83326ZM21.333 3.83326H10.6663V7.83326H21.333V3.83326ZM29.5757 5.59062C28.5563 4.5713 27.2995 4.17381 25.9886 3.99754C24.735 3.82901 23.1621 3.83326 21.333 3.83326V7.83326C23.2751 7.83326 24.5306 7.83751 25.4555 7.96187C26.323 8.0785 26.595 8.2668 26.7471 8.41905L29.5757 5.59062ZM31.3306 12.4888C31.3226 11.0547 31.2898 9.76869 31.0913 8.68773C30.8822 7.54961 30.4631 6.47818 29.5757 5.59062L26.7471 8.41905C26.8842 8.55601 27.0417 8.7821 27.1571 9.41038C27.283 10.0958 27.3226 11.0451 27.3307 12.511L31.3306 12.4888ZM28.6665 16.4999C28.6665 16.2503 28.8029 16.0295 29.0149 15.9135L27.0941 12.4049C25.6517 13.1945 24.6665 14.7307 24.6665 16.4999H28.6665ZM29.0149 17.0863C28.8029 16.9703 28.6665 16.7495 28.6665 16.4999H24.6665C24.6665 18.2691 25.6517 19.8054 27.0941 20.5949L29.0149 17.0863ZM29.5757 27.4093C30.4631 26.5217 30.8822 25.4502 31.0913 24.3121C31.2898 23.2311 31.3226 21.9451 31.3306 20.5111L27.3307 20.4889C27.3226 21.9547 27.283 22.9041 27.1571 23.5895C27.0417 24.2178 26.8842 24.4438 26.7471 24.5809L29.5757 27.4093ZM21.333 29.1666C23.1621 29.1666 24.735 29.1709 25.9886 29.0023C27.2995 28.8261 28.5563 28.4286 29.5757 27.4093L26.7471 24.5809C26.595 24.733 26.323 24.9214 25.4555 25.0379C24.5306 25.1623 23.2751 25.1666 21.333 25.1666V29.1666ZM10.6663 29.1666H21.333V25.1666H10.6663V29.1666ZM2.42368 27.4093C3.443 28.4286 4.69969 28.8261 6.01073 29.0023C7.26423 29.1709 8.83724 29.1666 10.6663 29.1666V25.1666C8.72416 25.1666 7.46873 25.1623 6.54372 25.0379C5.67624 24.9214 5.40435 24.733 5.25211 24.5809L2.42368 27.4093ZM0.668661 20.5111C0.676645 21.9451 0.709477 23.2313 0.908035 24.3122C1.11709 25.4503 1.53612 26.5217 2.42367 27.4093L5.25211 24.5809C5.11515 24.4438 4.95763 24.2178 4.84221 23.5895C4.71631 22.9041 4.67676 21.9549 4.6686 20.4889L0.668661 20.5111ZM3.33299 16.4999C3.33299 16.7497 3.19652 16.9703 2.98459 17.0863L4.90531 20.595C6.34765 19.8054 7.33299 18.2691 7.33299 16.4999H3.33299ZM2.98459 15.9135C3.19652 16.0295 3.33299 16.2502 3.33299 16.4999H7.33299C7.33299 14.7307 6.34765 13.1944 4.90531 12.4049L2.98459 15.9135ZM4.6686 20.4889C4.66923 20.6011 4.64404 20.6965 4.61635 20.7617C4.59103 20.8213 4.56976 20.8421 4.5814 20.8285C4.59315 20.8149 4.62497 20.7818 4.68543 20.7357C4.74491 20.6903 4.81925 20.6421 4.90531 20.595L2.98459 17.0863C2.52651 17.337 1.98897 17.7067 1.54465 18.225C1.09141 18.7537 0.663192 19.5289 0.668661 20.5111L4.6686 20.4889ZM27.0941 20.5949C27.1801 20.6421 27.2545 20.6903 27.3139 20.7357C27.3743 20.7818 27.4062 20.8147 27.4179 20.8285C27.4295 20.8421 27.4082 20.8211 27.383 20.7615C27.3553 20.6963 27.3301 20.6011 27.3307 20.4889L31.3306 20.5111C31.3361 19.5287 30.9079 18.7537 30.4547 18.225C30.0105 17.7067 29.4729 17.337 29.0149 17.0863L27.0941 20.5949ZM27.3307 12.511C27.3301 12.3987 27.3553 12.3035 27.383 12.2383C27.4082 12.1787 27.4295 12.1578 27.4179 12.1714C27.4062 12.1851 27.3743 12.2181 27.3139 12.2642C27.2545 12.3096 27.1801 12.3578 27.0941 12.4049L29.0149 15.9135C29.4729 15.6629 30.0105 15.2931 30.4547 14.7749C30.9079 14.2462 31.3361 13.4711 31.3306 12.4888L27.3307 12.511ZM0.668661 12.4887C0.663192 13.471 1.09141 14.2462 1.54465 14.7749C1.98896 15.2931 2.52651 15.6629 2.98459 15.9135L4.90531 12.4049C4.81925 12.3578 4.74491 12.3095 4.68543 12.2641C4.62497 12.218 4.59315 12.185 4.5814 12.1713C4.56976 12.1577 4.59103 12.1786 4.61635 12.2382C4.64404 12.3034 4.66923 12.3987 4.6686 12.511L0.668661 12.4887Z" fill="#85858A"/>
<path d="M13 8.16675V11.5001" stroke="#85858A" stroke-width="1.5" stroke-linecap="round"/>
<path d="M13 16.1667V18.1667" stroke="#85858A" stroke-width="1.5" stroke-linecap="round"/>
<path d="M13 22.8333V24.8333" stroke="#85858A" stroke-width="1.5" stroke-linecap="round"/>
</g>
</svg>
