<svg width="24" height="24" viewBox="0 0 24 24" fill="none" xmlns="http://www.w3.org/2000/svg">
<path d="M15.9996 16.0857C15.0863 16.7638 13.7988 17.5857 11.9997 17.5857C10.2006 17.5857 8.91322 16.7638 7.99983 16.0857" stroke="#85858A" stroke-linecap="round" stroke-linejoin="round"/>
<path fill-rule="evenodd" clip-rule="evenodd" d="M2.00129 15.0111C1.96476 14.4749 1.52548 14.0501 0.988034 14.0501V14.0501C0.420441 14.0501 -0.0354564 14.5255 0.00217383 15.0918C0.427051 21.4863 2.51365 23.5729 8.90816 23.9978C9.4745 24.0355 9.94987 23.5796 9.94987 23.012V23.012C9.94987 22.4745 9.52511 22.0352 8.98891 21.9987C7.95262 21.9281 7.07406 21.8128 6.32534 21.6465C4.96922 21.3451 4.16471 20.9032 3.63077 20.3692C3.09683 19.8353 2.65493 19.0308 2.35354 17.6747C2.18715 16.9259 2.07188 16.0474 2.00129 15.0111ZM21.9128 15.0111C21.9493 14.4749 22.3886 14.0501 22.9261 14.0501V14.0501C23.4937 14.0501 23.9496 14.5255 23.9119 15.0918C23.487 21.4863 21.4004 23.5729 15.0059 23.9978C14.4396 24.0355 13.9642 23.5796 13.9642 23.012V23.012C13.9642 22.4745 14.389 22.0352 14.9252 21.9987C15.9615 21.9281 16.84 21.8129 17.5888 21.6465C18.9449 21.3451 19.7494 20.9032 20.2833 20.3692C20.8173 19.8353 21.2592 19.0308 21.5606 17.6747C21.7269 16.9259 21.8422 16.0474 21.9128 15.0111ZM24 12.0917C24 12.0754 24 12.0592 24 12.0429C24 12.0267 24 12.0105 24 11.9942V12.0917ZM23.9119 8.99408C23.9496 9.56042 23.4937 10.0358 22.9261 10.0358V10.0358C22.3886 10.0358 21.9493 9.61103 21.9128 9.07483C21.8422 8.03853 21.7269 7.15997 21.5606 6.41125C21.2592 5.05513 20.8173 4.25061 20.2833 3.71667C19.7494 3.18274 18.9449 2.74083 17.5888 2.43945C16.84 2.27305 15.9615 2.15779 14.9252 2.08719C14.389 2.05066 13.9642 1.61138 13.9642 1.07394V1.07394C13.9642 0.506342 14.4396 0.0504455 15.0059 0.0880753C21.4004 0.51295 23.487 2.59955 23.9119 8.99408ZM2.00129 9.07483C1.96476 9.61103 1.52548 10.0358 0.988034 10.0358V10.0358C0.420441 10.0358 -0.0354566 9.56042 0.00217355 8.99408C0.42705 2.59956 2.51365 0.512957 8.90816 0.0880773C9.47451 0.0504469 9.94987 0.506344 9.94987 1.07394V1.07394C9.94987 1.61138 9.52511 2.05066 8.98891 2.08719C7.95262 2.15779 7.07406 2.27305 6.32534 2.43945C4.96922 2.74083 4.16471 3.18274 3.63077 3.71667C3.09683 4.25061 2.65493 5.05513 2.35354 6.41125C2.18715 7.15997 2.07188 8.03853 2.00129 9.07483ZM11.957 0L11.9764 2.68966e-06H11.9377L11.957 0Z" fill="#85858A"/>
<path d="M11.9997 10.9138V13.9138" stroke="#85858A" stroke-linecap="round" stroke-linejoin="round"/>
<path d="M14.9997 7.91388V8.91386" stroke="#85858A" stroke-linecap="round" stroke-linejoin="round"/>
<path d="M8.9998 7.91388V8.91386" stroke="#85858A" stroke-linecap="round" stroke-linejoin="round"/>
</svg>

