<svg width="40" height="40" viewBox="0 0 40 40" fill="none" xmlns="http://www.w3.org/2000/svg">
<path d="M20 15C17.29 15 15 17.29 15 20C15 22.71 17.29 25 20 25C22.71 25 25 22.71 25 20C25 17.29 22.71 15 20 15Z" fill="white"/>
<path d="M33.3334 8.33338H29.0234L24.5117 3.82171C24.3572 3.66664 24.1735 3.54366 23.9713 3.45985C23.7691 3.37604 23.5523 3.33306 23.3334 3.33338H16.6667C16.4478 3.33306 16.231 3.37604 16.0288 3.45985C15.8265 3.54366 15.6429 3.66664 15.4884 3.82171L10.9767 8.33338H6.66671C4.82837 8.33338 3.33337 9.82838 3.33337 11.6667V30C3.33337 31.8384 4.82837 33.3334 6.66671 33.3334H33.3334C35.1717 33.3334 36.6667 31.8384 36.6667 30V11.6667C36.6667 9.82838 35.1717 8.33338 33.3334 8.33338ZM20 28.3334C15.4834 28.3334 11.6667 24.5167 11.6667 20C11.6667 15.4834 15.4834 11.6667 20 11.6667C24.5167 11.6667 28.3334 15.4834 28.3334 20C28.3334 24.5167 24.5167 28.3334 20 28.3334Z" fill="white"/>
</svg>
