<svg width="17" height="16" viewBox="0 0 17 16" fill="none" xmlns="http://www.w3.org/2000/svg">
<path d="M13.1028 6.35742C13.1028 6.35742 12.7506 10.7262 12.5462 12.5665C12.4489 13.4455 11.906 13.9605 11.0167 13.9768C9.32427 14.0072 7.62993 14.0092 5.93819 13.9735C5.08259 13.956 4.54873 13.4345 4.45338 12.5711C4.24775 10.7146 3.89746 6.35742 3.89746 6.35742" stroke="#85858A" stroke-linecap="round" stroke-linejoin="round"/>
<path d="M14.0002 4.2633H3" stroke="#85858A" stroke-linecap="round" stroke-linejoin="round"/>
<path d="M11.8808 4.26323C11.3716 4.26323 10.9331 3.90321 10.8332 3.40438L10.6755 2.61559C10.5782 2.25169 10.2487 2 9.87312 2H7.12728C6.75169 2 6.42217 2.25169 6.32487 2.61559L6.16724 3.40438C6.06734 3.90321 5.62884 4.26323 5.11963 4.26323" stroke="#85858A" stroke-linecap="round" stroke-linejoin="round"/>
</svg>
