<svg width="32" height="33" viewBox="0 0 32 33" fill="none" xmlns="http://www.w3.org/2000/svg">
<path fill-rule="evenodd" clip-rule="evenodd" d="M6.935 11.8904L7.06297 11.5667C8.10513 8.96133 10.6304 7.25 13.4378 7.25H18.5622C21.3696 7.25 23.8949 8.96133 24.937 11.5667L25.065 11.8904H25.0727C25.1313 11.875 25.1914 11.875 25.25 11.875H28.3333V11.8904C28.3333 12.6921 28.0096 13.4782 27.433 14.064C27.1987 14.2953 26.9304 14.4805 26.639 14.6346L26.6529 14.6501C26.9042 14.8351 27.1339 15.0508 27.3374 15.2975C27.7383 15.7754 28.0327 16.3459 28.193 16.9471C28.2855 17.3017 28.3318 17.6717 28.3333 18.0417V22.6667H26.7917V25.75H22.1667V22.6667H9.83334V25.75H5.20834V22.6667H3.66667V18.0417C3.66667 16.6696 4.31417 15.4209 5.36096 14.6346C5.06959 14.4805 4.80131 14.2953 4.56698 14.064C3.9904 13.4782 3.66667 12.6921 3.66667 11.8904V11.875H6.75C6.81321 11.875 6.87487 11.875 6.935 11.8904ZM26.7917 16.5H24.6673C24.0044 16.5 23.3676 16.762 22.8989 17.2245C22.4303 17.7025 22.1667 18.3348 22.1667 18.9977V19.5833H23.7083C25.4042 19.5833 26.7809 18.2113 26.7917 16.5154V16.5ZM7.33274 16.5H5.20834C5.20834 18.2112 6.58811 19.5833 8.28857 19.5833C9.13957 19.5833 9.83334 19.5833 9.83334 19.5833V18.9977C9.83334 18.3348 9.56975 17.7025 9.10108 17.2245C8.63242 16.762 7.99566 16.5 7.33274 16.5ZM13.4378 10.3333C11.8915 10.3333 10.5009 11.2738 9.92583 12.7076L9.64373 13.4167H22.3563L22.0742 12.7076C21.9416 12.3838 21.7628 12.0753 21.5438 11.7824C21.2972 11.4741 21.0012 11.1965 20.6682 10.9807C20.3398 10.7495 19.9775 10.5801 19.5982 10.4722C19.2606 10.3797 18.9122 10.3333 18.5622 10.3333H13.4378Z" fill="#85858A"/>
</svg>
