<svg width="24" height="24" viewBox="0 0 24 24" fill="none" xmlns="http://www.w3.org/2000/svg">
<circle cx="16.8462" cy="10.6154" r="0.692308" fill="#85858A"/>
<path fill-rule="evenodd" clip-rule="evenodd" d="M16.5117 7.48363C16.8724 7.53264 17.2009 7.5914 17.5 7.66119C17.5268 7.38026 17.5385 7.07272 17.5385 6.73627C17.5385 3.65945 16.5609 3 12 3C7.43909 3 6.46155 3.65945 6.46155 6.73627C6.46155 7.07272 6.47324 7.38026 6.50002 7.66119C6.79908 7.5914 7.12766 7.53264 7.4883 7.48363C7.47081 7.26867 7.46155 7.0215 7.46155 6.73627C7.46155 5.23304 7.71895 4.78668 8.07968 4.54333C8.312 4.3866 8.69568 4.23947 9.35875 4.14006C10.0174 4.04132 10.8747 4 12 4C13.1253 4 13.9826 4.04132 14.6413 4.14006C15.3043 4.23947 15.688 4.3866 15.9203 4.54333C16.2811 4.78668 16.5385 5.23304 16.5385 6.73627C16.5385 7.0215 16.5292 7.26867 16.5117 7.48363Z" fill="#85858A"/>
<path d="M6.96155 16.8462C6.96155 18.5754 7.21772 19.3743 7.81532 19.8205C8.13069 20.056 8.58955 20.2317 9.2798 20.3443C9.96925 20.4566 10.8495 20.5 11.9776 20.5C13.1056 20.5 13.9889 20.4566 14.6829 20.3442C15.3777 20.2316 15.8433 20.0555 16.1649 19.8186C16.7729 19.3708 17.0385 18.5706 17.0385 16.8462C17.0385 15.7915 17.0372 15.057 16.957 14.5183C16.8791 13.9941 16.74 13.7584 16.5441 13.6121C16.3173 13.4427 15.9203 13.3193 15.1511 13.2555C14.3948 13.1927 13.377 13.1923 11.9776 13.1923C10.5894 13.1923 9.58017 13.1927 8.83033 13.2555C8.06784 13.3193 7.67563 13.4424 7.45183 13.611C7.25816 13.7568 7.11987 13.9925 7.04238 14.5177C6.96284 15.0568 6.96155 15.7916 6.96155 16.8462Z" stroke="#85858A" stroke-linecap="round" stroke-linejoin="round"/>
<path fill-rule="evenodd" clip-rule="evenodd" d="M4.69231 12.3372C4.69231 13.4729 4.73912 14.246 4.88652 14.8059C5.02022 15.3138 5.22037 15.5871 5.53415 15.7904C5.74882 15.9295 6.04823 16.0559 6.47705 16.162C6.46641 16.3771 6.46156 16.605 6.46156 16.8461C6.46156 16.9623 6.46269 17.0753 6.46504 17.1854C4.00029 16.6579 3.69231 15.3623 3.69231 12.3372C3.69231 7.80173 5.07692 7.15381 12 7.15381C19.6154 7.15381 20.3077 7.80173 20.3077 12.3372C20.3077 15.3622 19.9997 16.6579 17.535 17.1854C17.5373 17.0753 17.5385 16.9623 17.5385 16.8461C17.5385 16.605 17.5336 16.3771 17.523 16.162C17.9518 16.0559 18.2512 15.9295 18.4659 15.7904C18.7796 15.5871 18.9798 15.3138 19.1135 14.8059C19.2609 14.246 19.3077 13.4729 19.3077 12.3372C19.3077 11.2015 19.2609 10.4284 19.1135 9.86847C18.9798 9.36059 18.7796 9.08724 18.4659 8.88394C18.0985 8.64594 17.4831 8.44526 16.3957 8.31927C15.3219 8.19484 13.9006 8.15381 12 8.15381C10.275 8.15381 8.94045 8.19473 7.89969 8.31887C6.85037 8.44404 6.19279 8.64451 5.76553 8.90157C5.05749 9.32756 4.69231 10.0898 4.69231 12.3372Z" fill="#85858A"/>
</svg>
