<svg width="24" height="24" viewBox="0 0 24 24" fill="none" xmlns="http://www.w3.org/2000/svg">
<path d="M3.74839 6.47903L4.19839 7.07903H4.19839L3.74839 6.47903ZM5.80645 4.93548L6.25645 5.53548L5.80645 4.93548ZM11.4194 4.93548L11.8694 4.33548L11.8694 4.33548L11.4194 4.93548ZM11.5099 5.00338L11.0599 5.60338L11.0599 5.60338L11.5099 5.00338ZM19.0903 16.021L19.5403 16.621L19.5403 16.621L19.0903 16.021ZM17.0323 17.5645L16.5823 16.9645V16.9645L17.0323 17.5645ZM11.4194 17.5645L10.9694 18.1645L10.9694 18.1645L11.4194 17.5645ZM11.3288 17.4966L11.7788 16.8966L11.7788 16.8966L11.3288 17.4966ZM5.89698 17.4966L6.34698 18.0966H6.34698L5.89698 17.4966ZM16.9417 5.00338L17.3917 5.60338V5.60338L16.9417 5.00338ZM4.19839 7.07903L6.25645 5.53548L5.35645 4.33548L3.29839 5.87903L4.19839 7.07903ZM10.9694 5.53548L11.0599 5.60338L11.9599 4.40338L11.8694 4.33548L10.9694 5.53548ZM19.0887 6.45187V14.5242H20.5887V6.45187H19.0887ZM18.6403 15.421L16.5823 16.9645L17.4823 18.1645L19.5403 16.621L18.6403 15.421ZM11.8694 16.9645L11.7788 16.8966L10.8788 18.0966L10.9694 18.1645L11.8694 16.9645ZM3.75 16.0481V7.97581H2.25V16.0481H3.75ZM5.44698 16.8966C4.74779 17.421 3.75 16.9221 3.75 16.0481H2.25C2.25 18.1582 4.65893 19.3627 6.34698 18.0966L5.44698 16.8966ZM19.0887 14.5242C19.0887 14.877 18.9226 15.2093 18.6403 15.421L19.5403 16.621C20.2003 16.126 20.5887 15.3492 20.5887 14.5242H19.0887ZM17.3917 5.60338C18.0909 5.07899 19.0887 5.57788 19.0887 6.45187H20.5887C20.5887 4.34181 18.1798 3.13734 16.4917 4.40338L17.3917 5.60338ZM3.29839 5.87903C2.63841 6.37401 2.25 7.15084 2.25 7.97581H3.75C3.75 7.62297 3.91612 7.29073 4.19839 7.07903L3.29839 5.87903ZM9.3629 15.9274V4.70161H7.8629V15.9274H9.3629ZM14.9758 17.7984V6.57258H13.4758V17.7984H14.9758ZM6.25645 5.53548C6.95472 5.01178 7.78336 4.75 8.6129 4.75V3.25C7.46753 3.25 6.32126 3.61187 5.35645 4.33548L6.25645 5.53548ZM8.6129 4.75C9.44244 4.75 10.2711 5.01178 10.9694 5.53548L11.8694 4.33548C10.9045 3.61187 9.75827 3.25 8.6129 3.25V4.75ZM9.3629 4.70161V4H7.8629V4.70161H9.3629ZM11.0599 5.60338C11.9979 6.30687 13.1123 6.65869 14.2258 6.65869L14.2258 5.15869C13.4281 5.15869 12.6313 4.90697 11.9599 4.40338L11.0599 5.60338ZM14.2258 6.65869C15.3393 6.65869 16.4537 6.30687 17.3917 5.60338L16.4917 4.40338C15.8203 4.90697 15.0235 5.15869 14.2258 5.15869L14.2258 6.65869ZM14.9758 6.57258V5.90869H13.4758V6.57258H14.9758ZM16.5823 16.9645C15.884 17.4882 15.0553 17.75 14.2258 17.75V19.25C15.3712 19.25 16.5174 18.8881 17.4823 18.1645L16.5823 16.9645ZM14.2258 17.75C13.3963 17.75 12.5676 17.4882 11.8694 16.9645L10.9694 18.1645C11.9342 18.8881 13.0804 19.25 14.2258 19.25V17.75ZM13.4758 17.7984V18.5H14.9758V17.7984H13.4758ZM11.7788 16.8966C10.8408 16.1931 9.72642 15.8413 8.6129 15.8413L8.6129 17.3413C9.41059 17.3413 10.2074 17.593 10.8788 18.0966L11.7788 16.8966ZM8.6129 15.8413C7.49939 15.8413 6.38497 16.1931 5.44698 16.8966L6.34698 18.0966C7.01843 17.593 7.81521 17.3413 8.6129 17.3413L8.6129 15.8413ZM7.8629 15.9274V16.5913H9.3629V15.9274H7.8629Z" fill="white"/>
</svg>
