<svg width="24" height="24" viewBox="0 0 24 24" fill="none" xmlns="http://www.w3.org/2000/svg">
<path d="M8.63238 2.99364L8.30019 2.61993L8.30019 2.61993L8.63238 2.99364ZM15.3676 2.99364L15.0354 3.36734V3.36734L15.3676 2.99364ZM15.1519 2.80185L15.484 2.42815V2.42815L15.1519 2.80185ZM8.84813 2.80185L9.18031 3.17556L9.18031 3.17556L8.84813 2.80185ZM4.06107 21.0453L4.35497 20.6408L4.06107 21.0453ZM2.95491 19.9391L3.35942 19.6452L2.95491 19.9391ZM21.0451 19.9391L20.6406 19.6452L21.0451 19.9391ZM19.9389 21.0453L19.645 20.6408L19.9389 21.0453ZM21.5 7.98512V13.0002H22.5V7.98512H21.5ZM13 21.5002H11V22.5002H13V21.5002ZM2.5 13.0002V7.98513H1.5V13.0002H2.5ZM14.8197 3.17556L15.0354 3.36734L15.6998 2.61993L15.484 2.42815L14.8197 3.17556ZM8.96456 3.36734L9.18031 3.17556L8.51595 2.42815L8.30019 2.61993L8.96456 3.36734ZM5.98493 4.50019C7.08335 4.50019 8.14359 4.09709 8.96456 3.36734L8.30019 2.61993C7.66227 3.18697 6.83844 3.50019 5.98493 3.50019V4.50019ZM15.0354 3.36734C15.8564 4.09709 16.9166 4.50019 18.0151 4.50019V3.50019C17.1616 3.50019 16.3377 3.18697 15.6998 2.61993L15.0354 3.36734ZM15.484 2.42815C13.4971 0.661971 10.5029 0.661971 8.51595 2.42815L9.18031 3.17556C10.7884 1.74617 13.2116 1.74617 14.8197 3.17556L15.484 2.42815ZM11 21.5002C9.114 21.5002 7.73966 21.4995 6.67112 21.3837C5.61193 21.269 4.91269 21.046 4.35497 20.6408L3.76718 21.4498C4.52378 21.9995 5.41914 22.2539 6.5634 22.3779C7.69831 22.5009 9.13627 22.5002 11 22.5002V21.5002ZM1.5 13.0002C1.5 14.8639 1.49931 16.3019 1.62227 17.4368C1.74625 18.5811 2.0007 19.4764 2.55041 20.233L3.35942 19.6452C2.95421 19.0875 2.73121 18.3883 2.61646 17.3291C2.50069 16.2605 2.5 14.8862 2.5 13.0002H1.5ZM4.35497 20.6408C3.97294 20.3632 3.63698 20.0273 3.35942 19.6452L2.55041 20.233C2.88964 20.6999 3.30026 21.1105 3.76718 21.4498L4.35497 20.6408ZM21.5 13.0002C21.5 14.8862 21.4993 16.2605 21.3835 17.3291C21.2688 18.3883 21.0458 19.0875 20.6406 19.6452L21.4496 20.233C21.9993 19.4764 22.2538 18.5811 22.3777 17.4368C22.5007 16.3019 22.5 14.8639 22.5 13.0002H21.5ZM13 22.5002C14.8637 22.5002 16.3017 22.5009 17.4366 22.3779C18.5809 22.2539 19.4762 21.9995 20.2328 21.4498L19.645 20.6408C19.0873 21.046 18.3881 21.269 17.3289 21.3837C16.2603 21.4995 14.886 21.5002 13 21.5002V22.5002ZM20.6406 19.6452C20.363 20.0273 20.0271 20.3632 19.645 20.6408L20.2328 21.4498C20.6997 21.1105 21.1104 20.6999 21.4496 20.233L20.6406 19.6452ZM22.5 7.98512C22.5 5.50817 20.492 3.50019 18.0151 3.50019V4.50019C19.9397 4.50019 21.5 6.06045 21.5 7.98512H22.5ZM2.5 7.98513C2.5 6.06045 4.06026 4.50019 5.98493 4.50019V3.50019C3.50797 3.50019 1.5 5.50817 1.5 7.98513H2.5ZM7.5 13.0002C7.5 15.4855 9.51472 17.5002 12 17.5002V16.5002C10.067 16.5002 8.5 14.9332 8.5 13.0002H7.5ZM12 17.5002C14.4853 17.5002 16.5 15.4855 16.5 13.0002H15.5C15.5 14.9332 13.933 16.5002 12 16.5002V17.5002ZM16.5 13.0002C16.5 10.5149 14.4853 8.50019 12 8.50019V9.50019C13.933 9.50019 15.5 11.0672 15.5 13.0002H16.5ZM12 8.50019C9.51472 8.50019 7.5 10.5149 7.5 13.0002H8.5C8.5 11.0672 10.067 9.50019 12 9.50019V8.50019Z" fill="#009D4F"/>
<path d="M17 8C17 8.55228 17.4477 9 18 9C18.5523 9 19 8.55228 19 8C19 7.44772 18.5523 7 18 7C17.4477 7 17 7.44772 17 8Z" fill="#009D4F"/>
</svg>
