<svg width="16" height="16" viewBox="0 0 16 16" fill="none" xmlns="http://www.w3.org/2000/svg">
<path d="M11.8921 6.50019C12.1684 6.19159 12.1422 5.71744 11.8336 5.44114C11.525 5.16485 11.0508 5.19105 10.7745 5.49965L11.8921 6.50019ZM9.0872 8.50871L8.52842 8.00843L9.0872 8.50871ZM5.24609 8.5087L5.80487 8.00843L5.24609 8.5087ZM5.22542 7.36122C4.94913 7.05262 4.47498 7.02643 4.16638 7.30272C3.85777 7.57901 3.83158 8.05316 4.10787 8.36176L5.22542 7.36122ZM13.9166 7.99992C13.9166 11.2676 11.2677 13.9166 7.99998 13.9166V15.4166C12.0961 15.4166 15.4166 12.096 15.4166 7.99992H13.9166ZM7.99998 13.9166C4.73229 13.9166 2.08331 11.2676 2.08331 7.99992H0.583313C0.583313 12.096 3.90387 15.4166 7.99998 15.4166V13.9166ZM2.08331 7.99992C2.08331 4.73223 4.73229 2.08325 7.99998 2.08325V0.583252C3.90387 0.583252 0.583313 3.90381 0.583313 7.99992H2.08331ZM7.99998 2.08325C11.2677 2.08325 13.9166 4.73223 13.9166 7.99992H15.4166C15.4166 3.90381 12.0961 0.583252 7.99998 0.583252V2.08325ZM10.7745 5.49965L8.52842 8.00843L9.64597 9.00898L11.8921 6.50019L10.7745 5.49965ZM5.80487 8.00843L5.22542 7.36122L4.10787 8.36176L4.68732 9.00897L5.80487 8.00843ZM8.52842 8.00843C8.06824 8.52244 7.77537 8.84686 7.53014 9.05298C7.30353 9.24344 7.21241 9.24992 7.16665 9.24992V10.7499C7.70635 10.7499 8.13048 10.5079 8.49527 10.2013C8.84143 9.9103 9.2161 9.48912 9.64597 9.00898L8.52842 8.00843ZM4.68732 9.00897C5.11719 9.48912 5.49186 9.9103 5.83803 10.2013C6.20282 10.5079 6.62694 10.7499 7.16665 10.7499V9.24992C7.12088 9.24992 7.02976 9.24344 6.80315 9.05298C6.55792 8.84686 6.26505 8.52243 5.80487 8.00843L4.68732 9.00897Z" fill="#009D4F"/>
</svg>
