<svg width="24" height="24" viewBox="0 0 24 24" fill="none" xmlns="http://www.w3.org/2000/svg">
<rect x="0.5" y="0.5" width="23" height="23" rx="11.5" fill="white" fill-opacity="0.2"/>
<path fill-rule="evenodd" clip-rule="evenodd" d="M14.0451 6.86877C13.7931 6.73909 13.5365 6.8161 13.3643 6.89858C13.1846 6.98461 12.9943 7.12474 12.7989 7.2884C12.409 7.61495 11.8939 8.12638 11.2381 8.77765L9.35991 10.6427C9.14291 10.8581 8.94858 11.0511 8.81692 11.2195C8.68713 11.3854 8.52112 11.6461 8.57631 11.9712C8.6347 12.315 8.89304 12.474 9.07765 12.5562C9.25676 12.636 9.49976 12.7011 9.7616 12.7712L10.9928 13.101L10.5956 13.942C10.2224 14.732 9.92586 15.3598 9.76398 15.8095C9.68382 16.0322 9.61803 16.2597 9.61041 16.4636C9.60217 16.6842 9.66587 16.9826 9.95478 17.1312C10.2069 17.2609 10.4634 17.1839 10.6356 17.1014C10.8153 17.0154 11.0056 16.8753 11.2011 16.7116C11.591 16.385 12.106 15.8736 12.7618 15.2224L14.64 13.3573C14.857 13.1419 15.0513 12.9489 15.183 12.7805C15.3128 12.6145 15.4788 12.3539 15.4236 12.0288C15.3652 11.685 15.1069 11.526 14.9223 11.4438C14.7432 11.364 14.5002 11.2989 14.2383 11.2288L13.0071 10.8989L13.4043 10.058C13.7775 9.26797 14.0741 8.64024 14.2359 8.19052C14.3161 7.96782 14.3819 7.7403 14.3895 7.53636C14.3977 7.31583 14.334 7.01739 14.0451 6.86877Z" fill="white"/>
<line x1="3.35355" y1="4.64645" x2="19.3536" y2="20.6464" stroke="white"/>
<rect x="0.5" y="0.5" width="23" height="23" rx="11.5" stroke="white"/>
</svg>
