<svg width="18" height="23" viewBox="0 0 18 23" fill="none" xmlns="http://www.w3.org/2000/svg">
<path d="M11.7808 19.7005L11.1906 19.2377L11.7808 19.7005ZM6.21921 19.7005L5.62903 20.1633L6.21921 19.7005ZM9 22.0055V21.2555V22.0055ZM16.25 9.6087C16.25 10.8352 15.6104 12.4764 14.6037 14.256C13.6137 16.0063 12.3342 17.7794 11.1906 19.2377L12.371 20.1633C13.5371 18.6762 14.8672 16.837 15.9094 14.9945C16.9349 13.1814 17.75 11.2494 17.75 9.6087H16.25ZM6.80938 19.2377C5.66578 17.7794 4.38628 16.0063 3.39625 14.256C2.38962 12.4764 1.75 10.8352 1.75 9.6087H0.25C0.25 11.2494 1.06511 13.1814 2.09064 14.9945C3.13277 16.837 4.46288 18.6762 5.62903 20.1633L6.80938 19.2377ZM1.75 9.6087C1.75 5.21571 5.04678 1.75 9 1.75V0.25C4.11666 0.25 0.25 4.49277 0.25 9.6087H1.75ZM9 1.75C12.9532 1.75 16.25 5.21571 16.25 9.6087H17.75C17.75 4.49277 13.8833 0.25 9 0.25V1.75ZM11.1906 19.2377C10.5717 20.027 10.1641 20.5426 9.79918 20.8741C9.46635 21.1764 9.24418 21.2555 9 21.2555V22.7555C9.72906 22.7555 10.2948 22.4504 10.8078 21.9844C11.2886 21.5476 11.7849 20.9107 12.371 20.1633L11.1906 19.2377ZM5.62903 20.1633C6.21511 20.9107 6.71136 21.5476 7.19224 21.9844C7.70524 22.4504 8.27094 22.7555 9 22.7555V21.2555C8.75582 21.2555 8.53365 21.1764 8.20082 20.8741C7.83587 20.5426 7.42834 20.027 6.80938 19.2377L5.62903 20.1633ZM5.25 10C5.25 12.0711 6.92893 13.75 9 13.75V12.25C7.75736 12.25 6.75 11.2426 6.75 10H5.25ZM9 13.75C11.0711 13.75 12.75 12.0711 12.75 10H11.25C11.25 11.2426 10.2426 12.25 9 12.25V13.75ZM12.75 10C12.75 7.92893 11.0711 6.25 9 6.25V7.75C10.2426 7.75 11.25 8.75736 11.25 10H12.75ZM9 6.25C6.92893 6.25 5.25 7.92893 5.25 10H6.75C6.75 8.75736 7.75736 7.75 9 7.75V6.25Z" fill="#1A2B6D"/>
</svg>
