<svg width="11" height="6" viewBox="0 0 11 6" fill="none" xmlns="http://www.w3.org/2000/svg">
<path d="M9.80589 0.134519L5.49956 4.91646L1.19322 0.134519C1.11628 0.0489095 1.013 0.000981443 0.905445 0.000981443C0.797893 0.000981443 0.694607 0.0489095 0.617667 0.134519C0.580413 0.176101 0.550817 0.225731 0.530612 0.280506C0.510407 0.335281 0.5 0.394097 0.5 0.453511C0.5 0.512925 0.510407 0.571742 0.530612 0.626516C0.550817 0.681291 0.580413 0.730922 0.617667 0.772503L5.19886 5.86067C5.27931 5.95 5.38721 6 5.49956 6C5.61191 6 5.71981 5.95 5.80026 5.86067L10.3815 0.773485C10.419 0.731873 10.4488 0.68212 10.4691 0.627164C10.4895 0.572207 10.5 0.513162 10.5 0.453511C10.5 0.393861 10.4895 0.334815 10.4691 0.279859C10.4488 0.224903 10.419 0.17515 10.3815 0.133538C10.3045 0.0479276 10.2012 0 10.0937 0C9.98612 0 9.88283 0.0479276 9.80589 0.133538V0.134519Z" fill="#1C3879" fill-opacity="0.8"/>
</svg>
